<svg width="168" height="54" viewBox="0 0 168 54" fill="none" xmlns="http://www.w3.org/2000/svg">
<rect width="168" height="54" rx="12" fill="white" fill-opacity="0.12"/>
<path d="M41.7568 26.2363C41.7697 25.2347 42.0357 24.2526 42.5302 23.3815C43.0246 22.5103 43.7313 21.7784 44.5846 21.2538C44.0426 20.4796 43.3274 19.8425 42.496 19.393C41.6646 18.9436 40.7399 18.6941 39.7953 18.6646C37.7802 18.4531 35.8266 19.8704 34.7998 19.8704C33.7531 19.8704 32.1721 18.6856 30.4696 18.7206C29.3684 18.7562 28.2952 19.0764 27.3545 19.6501C26.4138 20.2238 25.6378 21.0313 25.1021 21.9941C22.7813 26.0122 24.5124 31.9174 26.7355 35.1654C27.8478 36.7558 29.1477 38.5323 30.8487 38.4693C32.5131 38.4003 33.1348 37.4079 35.1439 37.4079C37.1345 37.4079 37.7177 38.4693 39.4531 38.4293C41.2392 38.4003 42.3645 36.8318 43.4378 35.2263C44.2369 34.0931 44.8519 32.8406 45.2599 31.5153C44.2222 31.0764 43.3367 30.3418 42.7138 29.403C42.0908 28.4643 41.758 27.3629 41.7568 26.2363V26.2363Z" fill="white"/>
<path d="M38.4789 16.5286C39.4527 15.3595 39.9325 13.8569 39.8163 12.3398C38.3285 12.4961 36.9542 13.2072 35.9672 14.3314C35.4846 14.8806 35.115 15.5195 34.8795 16.2116C34.644 16.9037 34.5473 17.6355 34.5948 18.365C35.3389 18.3727 36.0751 18.2114 36.7479 17.8933C37.4207 17.5752 38.0126 17.1086 38.4789 16.5286Z" fill="white"/>
<path d="M62.7967 34.4432H57.1166L55.7525 38.4709H53.3467L58.7268 23.5693H61.2264L66.6064 38.4709H64.1596L62.7967 34.4432ZM57.7049 32.5846H62.2073L59.9877 26.0479H59.9256L57.7049 32.5846Z" fill="white"/>
<path d="M78.2257 33.0392C78.2257 36.4154 76.4187 38.5845 73.6917 38.5845C73.001 38.6207 72.314 38.4615 71.7094 38.1254C71.1048 37.7892 70.6072 37.2896 70.2734 36.6837H70.2218V42.065H67.9917V27.6064H70.1503V29.4134H70.1913C70.5405 28.8105 71.0466 28.3134 71.6557 27.9752C72.2649 27.637 72.9543 27.4703 73.6507 27.4927C76.4081 27.4927 78.2257 29.6724 78.2257 33.0392ZM75.9335 33.0392C75.9335 30.8396 74.7968 29.3935 73.0624 29.3935C71.3585 29.3935 70.2124 30.8701 70.2124 33.0392C70.2124 35.2283 71.3585 36.6943 73.0624 36.6943C74.7968 36.6943 75.9335 35.2588 75.9335 33.0392Z" fill="white"/>
<path d="M90.1832 33.0392C90.1832 36.4154 88.3762 38.5845 85.6493 38.5845C84.9585 38.6207 84.2715 38.4615 83.6669 38.1254C83.0624 37.7892 82.5647 37.2896 82.2309 36.6837H82.1793V42.065H79.9492V27.6064H82.1078V29.4134H82.1488C82.498 28.8105 83.004 28.3134 83.6132 27.9752C84.2224 27.637 84.9118 27.4703 85.6082 27.4927C88.3657 27.4927 90.1832 29.6724 90.1832 33.0392ZM87.8911 33.0392C87.8911 30.8396 86.7543 29.3935 85.02 29.3935C83.316 29.3935 82.17 30.8701 82.17 33.0392C82.17 35.2283 83.316 36.6943 85.02 36.6943C86.7543 36.6943 87.8911 35.2587 87.8911 33.0392H87.8911Z" fill="white"/>
<path d="M98.0866 34.3189C98.2518 35.7966 99.6874 36.7669 101.649 36.7669C103.529 36.7669 104.881 35.7966 104.881 34.4642C104.881 33.3075 104.065 32.615 102.134 32.1403L100.203 31.6751C97.4667 31.0142 96.1963 29.7345 96.1963 27.6579C96.1963 25.0868 98.437 23.3208 101.619 23.3208C104.767 23.3208 106.926 25.0868 106.999 27.6579H104.747C104.613 26.1708 103.383 25.2732 101.587 25.2732C99.7904 25.2732 98.5611 26.1814 98.5611 27.5032C98.5611 28.5567 99.3463 29.1767 101.267 29.6512L102.909 30.0544C105.966 30.7774 107.237 32.0056 107.237 34.1852C107.237 36.9731 105.016 38.7192 101.484 38.7192C98.1791 38.7192 95.9479 37.0141 95.8037 34.3188L98.0866 34.3189Z" fill="white"/>
<path d="M112.049 25.0354V27.6065H114.115V29.3725H112.049V35.362C112.049 36.2924 112.463 36.726 113.371 36.726C113.616 36.7218 113.861 36.7045 114.105 36.6744V38.4299C113.696 38.5062 113.281 38.5407 112.866 38.533C110.667 38.533 109.809 37.7068 109.809 35.5998V29.3725H108.229V27.6065H109.809V25.0354H112.049Z" fill="white"/>
<path d="M115.312 33.0393C115.312 29.6209 117.325 27.4729 120.465 27.4729C123.615 27.4729 125.619 29.6209 125.619 33.0393C125.619 36.467 123.625 38.6057 120.465 38.6057C117.305 38.6057 115.312 36.467 115.312 33.0393ZM123.346 33.0393C123.346 30.6944 122.272 29.3104 120.465 29.3104C118.658 29.3104 117.584 30.7049 117.584 33.0393C117.584 35.3936 118.658 36.767 120.465 36.767C122.272 36.767 123.346 35.3936 123.346 33.0393H123.346Z" fill="white"/>
<path d="M127.457 27.6063H129.584V29.4555H129.636C129.779 28.878 130.118 28.3676 130.594 28.0101C131.07 27.6526 131.654 27.4699 132.249 27.4926C132.506 27.4917 132.762 27.5196 133.013 27.5758V29.6618C132.688 29.5626 132.35 29.5171 132.011 29.527C131.687 29.5139 131.364 29.571 131.064 29.6944C130.764 29.8179 130.495 30.0048 130.274 30.2423C130.053 30.4797 129.887 30.7622 129.785 31.0702C129.684 31.3782 129.65 31.7044 129.687 32.0266V38.4707H127.457L127.457 27.6063Z" fill="white"/>
<path d="M143.295 35.2799C142.995 37.2522 141.074 38.6057 138.617 38.6057C135.456 38.6057 133.495 36.4881 133.495 33.0909C133.495 29.6831 135.467 27.4729 138.523 27.4729C141.529 27.4729 143.419 29.5377 143.419 32.8319V33.5959H135.746V33.7307C135.71 34.1305 135.76 34.5333 135.893 34.9124C136.025 35.2914 136.236 35.6379 136.513 35.929C136.789 36.22 137.124 36.4489 137.496 36.6005C137.868 36.7521 138.267 36.8228 138.668 36.808C139.195 36.8574 139.724 36.7354 140.176 36.46C140.628 36.1847 140.98 35.7708 141.177 35.2799L143.295 35.2799ZM135.756 32.0374H141.188C141.208 31.6778 141.154 31.3181 141.028 30.9806C140.902 30.6432 140.708 30.3353 140.458 30.0764C140.208 29.8175 139.907 29.6131 139.574 29.476C139.241 29.339 138.883 29.2722 138.523 29.2799C138.16 29.2778 137.8 29.3475 137.464 29.4852C137.128 29.6229 136.822 29.8258 136.565 30.0822C136.308 30.3385 136.104 30.6433 135.965 30.9789C135.826 31.3144 135.755 31.6742 135.756 32.0374V32.0374Z" fill="white"/>
<path d="M57.4257 12.3529C57.8932 12.3193 58.3624 12.3899 58.7993 12.5597C59.2362 12.7294 59.6301 12.9939 59.9524 13.3343C60.2747 13.6746 60.5174 14.0823 60.6631 14.5278C60.8088 14.9733 60.8538 15.4456 60.7948 15.9107C60.7948 18.1982 59.5585 19.5131 57.4257 19.5131H54.8394V12.3529H57.4257ZM55.9515 18.5005H57.3015C57.6355 18.5204 57.9699 18.4656 58.2801 18.3401C58.5904 18.2146 58.8687 18.0214 59.0949 17.7748C59.3211 17.5281 59.4894 17.2341 59.5877 16.9141C59.6859 16.5942 59.7116 16.2564 59.6628 15.9253C59.708 15.5955 59.6798 15.2597 59.58 14.9421C59.4803 14.6245 59.3115 14.3329 59.0859 14.0882C58.8602 13.8435 58.5832 13.6517 58.2747 13.5266C57.9662 13.4016 57.6338 13.3463 57.3015 13.3647H55.9515V18.5005Z" fill="white"/>
<path d="M62.0511 16.8088C62.0171 16.4537 62.0578 16.0954 62.1704 15.7569C62.283 15.4184 62.4651 15.1072 62.705 14.8432C62.945 14.5793 63.2374 14.3683 63.5636 14.224C63.8899 14.0797 64.2426 14.0051 64.5994 14.0051C64.9561 14.0051 65.3089 14.0797 65.6351 14.224C65.9613 14.3683 66.2538 14.5793 66.4937 14.8432C66.7336 15.1072 66.9157 15.4184 67.0283 15.7569C67.141 16.0954 67.1816 16.4537 67.1476 16.8088C67.1822 17.1642 67.1421 17.523 67.0298 17.8621C66.9175 18.2011 66.7355 18.5129 66.4955 18.7774C66.2555 19.0419 65.9628 19.2532 65.6363 19.3979C65.3097 19.5425 64.9565 19.6172 64.5994 19.6172C64.2422 19.6172 63.889 19.5425 63.5625 19.3979C63.2359 19.2532 62.9432 19.0419 62.7033 18.7774C62.4633 18.5129 62.2813 18.2011 62.1689 17.8621C62.0566 17.523 62.0165 17.1642 62.0511 16.8088V16.8088ZM66.0507 16.8088C66.0507 15.6375 65.5245 14.9525 64.6011 14.9525C63.6742 14.9525 63.1527 15.6375 63.1527 16.8088C63.1527 17.9895 63.6742 18.6691 64.6011 18.6691C65.5246 18.6691 66.0507 17.9848 66.0507 16.8088H66.0507Z" fill="white"/>
<path d="M73.9222 19.5129H72.8159L71.6991 15.5332H71.6148L70.5026 19.5129H69.4069L67.9175 14.1094H68.9991L69.9671 18.2326H70.0468L71.1577 14.1094H72.1808L73.2917 18.2326H73.3761L74.3394 14.1094H75.4058L73.9222 19.5129Z" fill="white"/>
<path d="M76.6587 14.1094H77.6853V14.9678H77.7649C77.9001 14.6595 78.1281 14.401 78.4172 14.2285C78.7062 14.0559 79.0419 13.9778 79.3774 14.0051C79.6404 13.9853 79.9044 14.025 80.1499 14.1211C80.3954 14.2172 80.6161 14.3673 80.7958 14.5603C80.9754 14.7533 81.1093 14.9843 81.1875 15.2361C81.2658 15.4879 81.2863 15.754 81.2478 16.0148V19.5128H80.1814V16.2826C80.1814 15.4143 79.804 14.9824 79.0153 14.9824C78.8368 14.9741 78.6586 15.0045 78.493 15.0715C78.3273 15.1385 78.1781 15.2405 78.0555 15.3706C77.933 15.5006 77.84 15.6557 77.783 15.825C77.7259 15.9944 77.7062 16.1741 77.7251 16.3518V19.5129H76.6587L76.6587 14.1094Z" fill="white"/>
<path d="M82.9468 12H84.0132V19.5129H82.9468V12Z" fill="white"/>
<path d="M85.4954 16.8089C85.4615 16.4538 85.5021 16.0955 85.6148 15.757C85.7274 15.4185 85.9095 15.1072 86.1495 14.8433C86.3894 14.5793 86.6819 14.3683 87.0082 14.224C87.3344 14.0797 87.6872 14.0051 88.044 14.0051C88.4007 14.0051 88.7535 14.0797 89.0798 14.224C89.406 14.3683 89.6985 14.5793 89.9384 14.8433C90.1784 15.1072 90.3605 15.4185 90.4732 15.757C90.5858 16.0955 90.6264 16.4538 90.5925 16.8089C90.6271 17.1644 90.5869 17.5231 90.4746 17.8622C90.3622 18.2012 90.1802 18.513 89.9402 18.7775C89.7001 19.042 89.4074 19.2533 89.0809 19.3979C88.7543 19.5426 88.4011 19.6173 88.044 19.6173C87.6868 19.6173 87.3336 19.5426 87.007 19.3979C86.6805 19.2533 86.3878 19.042 86.1478 18.7775C85.9077 18.513 85.7257 18.2012 85.6134 17.8622C85.501 17.5231 85.4609 17.1644 85.4954 16.8089V16.8089ZM89.495 16.8089C89.495 15.6376 88.9688 14.9526 88.0454 14.9526C87.1185 14.9526 86.597 15.6376 86.597 16.8089C86.597 17.9896 87.1185 18.6692 88.0454 18.6692C88.9689 18.6692 89.495 17.9849 89.495 16.8089H89.495Z" fill="white"/>
<path d="M91.7153 17.9848C91.7153 17.0121 92.4396 16.4514 93.7251 16.3717L95.1888 16.2873V15.8209C95.1888 15.2502 94.8114 14.928 94.0825 14.928C93.4872 14.928 93.0747 15.1465 92.9563 15.5286H91.9239C92.0329 14.6004 92.906 14.0051 94.1317 14.0051C95.4864 14.0051 96.2505 14.6795 96.2505 15.8209V19.5129H95.2239V18.7536H95.1396C94.9683 19.026 94.7278 19.248 94.4427 19.3971C94.1575 19.5461 93.8379 19.6168 93.5165 19.602C93.2897 19.6256 93.0604 19.6014 92.8435 19.5309C92.6266 19.4605 92.4268 19.3454 92.2571 19.193C92.0874 19.0406 91.9515 18.8544 91.8582 18.6463C91.7649 18.4382 91.7162 18.2129 91.7153 17.9848V17.9848ZM95.1888 17.5231V17.0713L93.8692 17.1557C93.1251 17.2055 92.7876 17.4586 92.7876 17.935C92.7876 18.4213 93.2095 18.7043 93.7896 18.7043C93.9596 18.7215 94.1313 18.7044 94.2945 18.6539C94.4577 18.6034 94.6091 18.5205 94.7396 18.4103C94.8701 18.3001 94.9772 18.1648 95.0543 18.0123C95.1315 17.8599 95.1772 17.6935 95.1888 17.5231V17.5231Z" fill="white"/>
<path d="M97.6519 16.8088C97.6519 15.1014 98.5296 14.0197 99.8948 14.0197C100.233 14.0042 100.568 14.0851 100.861 14.2529C101.155 14.4208 101.394 14.6687 101.552 14.9677H101.632V12H102.698V19.5129H101.676V18.6592H101.592C101.422 18.9562 101.174 19.201 100.875 19.3672C100.576 19.5334 100.237 19.6145 99.8948 19.6019C98.5202 19.602 97.6519 18.5203 97.6519 16.8088ZM98.7535 16.8088C98.7535 17.9549 99.2937 18.6446 100.197 18.6446C101.096 18.6446 101.652 17.945 101.652 16.8135C101.652 15.6873 101.09 14.9778 100.197 14.9778C99.2995 14.9778 98.7534 15.6721 98.7534 16.8088H98.7535Z" fill="white"/>
<path d="M107.11 16.8088C107.076 16.4537 107.117 16.0954 107.229 15.7569C107.342 15.4184 107.524 15.1072 107.764 14.8432C108.004 14.5793 108.296 14.3683 108.623 14.224C108.949 14.0797 109.302 14.0051 109.658 14.0051C110.015 14.0051 110.368 14.0797 110.694 14.224C111.02 14.3683 111.313 14.5793 111.553 14.8432C111.793 15.1072 111.975 15.4184 112.087 15.7569C112.2 16.0954 112.241 16.4537 112.207 16.8088C112.241 17.1642 112.201 17.523 112.089 17.8621C111.977 18.2011 111.795 18.5129 111.555 18.7774C111.315 19.0419 111.022 19.2532 110.695 19.3979C110.369 19.5425 110.016 19.6172 109.658 19.6172C109.301 19.6172 108.948 19.5425 108.622 19.3979C108.295 19.2532 108.002 19.0419 107.762 18.7774C107.522 18.5129 107.34 18.2011 107.228 17.8621C107.116 17.523 107.076 17.1642 107.11 16.8088V16.8088ZM111.11 16.8088C111.11 15.6375 110.584 14.9525 109.66 14.9525C108.733 14.9525 108.212 15.6375 108.212 16.8088C108.212 17.9895 108.733 18.6691 109.66 18.6691C110.584 18.6691 111.11 17.9848 111.11 16.8088Z" fill="white"/>
<path d="M113.638 14.1094H114.664V14.9678H114.744C114.879 14.6595 115.107 14.401 115.396 14.2285C115.685 14.0559 116.021 13.9778 116.356 14.0051C116.619 13.9853 116.883 14.025 117.129 14.1211C117.374 14.2172 117.595 14.3673 117.775 14.5603C117.954 14.7533 118.088 14.9843 118.167 15.2361C118.245 15.4879 118.265 15.754 118.227 16.0148V19.5128H117.16V16.2826C117.16 15.4143 116.783 14.9824 115.994 14.9824C115.816 14.9741 115.638 15.0045 115.472 15.0715C115.306 15.1385 115.157 15.2405 115.035 15.3706C114.912 15.5006 114.819 15.6557 114.762 15.825C114.705 15.9944 114.685 16.1741 114.704 16.3518V19.5129H113.638V14.1094Z" fill="white"/>
<path d="M124.253 12.7642V14.1341H125.423V15.0323H124.253V17.8108C124.253 18.3769 124.486 18.6247 125.017 18.6247C125.153 18.6243 125.288 18.6161 125.423 18.6001V19.4884C125.232 19.5226 125.038 19.5409 124.843 19.5429C123.657 19.5429 123.185 19.1257 123.185 18.0839V15.0323H122.327V14.134H123.185V12.7642H124.253Z" fill="white"/>
<path d="M126.88 12H127.937V14.9777H128.021C128.163 14.6666 128.397 14.4066 128.692 14.2334C128.987 14.0602 129.328 13.9821 129.669 14.0098C129.93 13.9955 130.192 14.0392 130.435 14.1377C130.677 14.2361 130.895 14.3869 131.073 14.5793C131.251 14.7717 131.384 15.001 131.463 15.2507C131.542 15.5005 131.565 15.7646 131.53 16.0242V19.5129H130.462V16.2873C130.462 15.4242 130.06 14.9871 129.307 14.9871C129.124 14.9721 128.939 14.9973 128.767 15.0609C128.594 15.1246 128.438 15.2252 128.308 15.3557C128.178 15.4862 128.079 15.6434 128.016 15.8163C127.954 15.9893 127.93 16.1738 127.946 16.357V19.5129H126.88L126.88 12Z" fill="white"/>
<path d="M137.748 18.0538C137.603 18.5476 137.289 18.9748 136.861 19.2606C136.433 19.5464 135.918 19.6726 135.406 19.6171C135.05 19.6265 134.697 19.5583 134.37 19.4172C134.043 19.2762 133.75 19.0657 133.513 18.8003C133.275 18.535 133.098 18.2211 132.994 17.8805C132.89 17.5399 132.862 17.1808 132.91 16.828C132.863 16.4742 132.892 16.1142 132.996 15.7726C133.1 15.431 133.276 15.1157 133.512 14.848C133.748 14.5803 134.039 14.3665 134.365 14.2211C134.691 14.0756 135.045 14.0019 135.402 14.005C136.905 14.005 137.812 15.0322 137.812 16.729V17.1011H133.997V17.1608C133.98 17.3591 134.005 17.5587 134.07 17.7468C134.135 17.9349 134.238 18.1074 134.374 18.2531C134.509 18.3989 134.674 18.5147 134.857 18.5932C135.039 18.6717 135.237 18.711 135.436 18.7088C135.691 18.7395 135.949 18.6935 136.178 18.5769C136.407 18.4602 136.596 18.2781 136.721 18.0538L137.748 18.0538ZM133.997 16.3124H136.726C136.739 16.131 136.715 15.9489 136.653 15.7776C136.592 15.6064 136.496 15.4498 136.371 15.318C136.246 15.1861 136.094 15.082 135.926 15.0121C135.758 14.9423 135.578 14.9084 135.396 14.9126C135.211 14.9103 135.028 14.9449 134.857 15.0144C134.687 15.084 134.531 15.187 134.401 15.3175C134.271 15.4479 134.168 15.6032 134.098 15.774C134.029 15.9449 133.994 16.128 133.997 16.3124H133.997Z" fill="white"/>
</svg>
