<svg width="73" height="100" viewBox="0 0 73 100" fill="none" xmlns="http://www.w3.org/2000/svg">
<path d="M29.2227 83.0921V70.1672H43.1306V83.0921V84.5921H44.6306H70.8534V98.5H1.5V84.5921H27.7227H29.2227V83.0921ZM64.9127 30.1143C64.9127 46.2697 52.1344 58.7285 36.1767 58.7285C20.2195 58.7285 7.44054 46.255 7.44054 30.1143C7.44054 13.9588 20.219 1.5 36.1767 1.5C52.1344 1.5 64.9127 13.9588 64.9127 30.1143ZM21.5616 30.099C21.5616 39.0299 27.929 45.0644 36.1767 45.0644C44.4244 45.0644 50.7917 39.0299 50.7917 30.099C50.7917 21.1682 44.4244 15.1337 36.1767 15.1337C27.929 15.1337 21.5616 21.1681 21.5616 30.099Z" stroke="white" stroke-width="3"/>
</svg>
