<svg width="168" height="54" viewBox="0 0 168 54" fill="none" xmlns="http://www.w3.org/2000/svg">
<rect width="168" height="54" rx="12" fill="white" fill-opacity="0.12"/>
<path d="M59.9016 15.2919C59.9234 15.7322 59.8554 16.1724 59.7016 16.5856C59.5479 16.9988 59.3117 17.3764 59.0074 17.6954C58.6663 18.0491 58.2544 18.3268 57.7986 18.5104C57.3429 18.6939 56.8535 18.7792 56.3625 18.7606C55.8683 18.765 55.3783 18.6706 54.9212 18.4829C54.464 18.2953 54.049 18.0181 53.7005 17.6678C53.3521 17.3174 53.0771 16.9009 52.8919 16.4428C52.7067 15.9847 52.6149 15.4942 52.622 15.0001C52.615 14.5059 52.7068 14.0154 52.892 13.5573C53.0772 13.0991 53.3522 12.6826 53.7006 12.3322C54.0491 11.9819 54.4641 11.7046 54.9212 11.5169C55.3783 11.3291 55.8683 11.2346 56.3625 11.2389C56.8705 11.2374 57.3735 11.3401 57.8403 11.5407C58.2738 11.7164 58.6596 11.9921 58.9664 12.3452L58.3336 12.9785C58.0924 12.6947 57.7892 12.47 57.4475 12.3219C57.1057 12.1738 56.7345 12.1062 56.3625 12.1243C55.988 12.1223 55.6169 12.196 55.2716 12.3408C54.9262 12.4857 54.6137 12.6988 54.3526 12.9673C54.0915 13.2358 53.8874 13.5542 53.7523 13.9035C53.6172 14.2528 53.554 14.6258 53.5665 15.0001C53.5575 15.5607 53.7153 16.1113 54.0197 16.5822C54.3242 17.0531 54.7616 17.4229 55.2765 17.6448C55.7914 17.8668 56.3606 17.9308 56.912 17.8288C57.4633 17.7268 57.972 17.4634 58.3734 17.072C58.7429 16.6738 58.957 16.1563 58.9769 15.6135H56.3625V14.7487H59.8512C59.8842 14.9279 59.9011 15.1097 59.9016 15.2919V15.2919Z" fill="white" stroke="white" stroke-width="0.2" stroke-miterlimit="10"/>
<path d="M65.433 12.2849H62.1541V14.5677H65.1108V15.4326H62.1541V17.7154H65.433V18.6001H61.2295V11.4001H65.433V12.2849Z" fill="white" stroke="white" stroke-width="0.2" stroke-miterlimit="10"/>
<path d="M69.3342 18.6001H68.4084V12.2849H66.3975V11.4001H71.3452V12.2849H69.3342V18.6001Z" fill="white" stroke="white" stroke-width="0.2" stroke-miterlimit="10"/>
<path d="M74.9253 18.6001V11.4001H75.8499V18.6001H74.9253Z" fill="white" stroke="white" stroke-width="0.2" stroke-miterlimit="10"/>
<path d="M79.9537 18.6001H79.0279V12.2849H77.0171V11.4001H81.9647V12.2849H79.9537V18.6001Z" fill="white" stroke="white" stroke-width="0.2" stroke-miterlimit="10"/>
<path d="M91.331 17.6694C90.6302 18.3681 89.681 18.7605 88.6914 18.7605C87.7018 18.7605 86.7525 18.3681 86.0517 17.6694C85.705 17.3183 85.4325 16.901 85.2503 16.4424C85.0681 15.9838 84.98 15.4932 84.9912 14.9999C84.98 14.5066 85.0681 14.016 85.2503 13.5574C85.4325 13.0988 85.705 12.6816 86.0517 12.3304C86.3981 11.9839 86.8094 11.7092 87.2621 11.5218C87.7149 11.3345 88.2001 11.2383 88.69 11.2388C89.1799 11.2392 89.665 11.3363 90.1173 11.5244C90.5697 11.7125 90.9805 11.988 91.3263 12.3351C91.6732 12.6853 91.9463 13.1017 92.1293 13.5594C92.3123 14.0172 92.4015 14.507 92.3915 14.9999C92.4024 15.4932 92.3142 15.9837 92.132 16.4422C91.9498 16.9008 91.6774 17.3181 91.331 17.6694V17.6694ZM86.7349 17.0665C87.2539 17.5847 87.9574 17.8757 88.6908 17.8757C89.4242 17.8757 90.1276 17.5847 90.6466 17.0665C90.9128 16.794 91.1209 16.4704 91.2585 16.1152C91.3961 15.76 91.4602 15.3806 91.447 14.9999C91.4602 14.6192 91.3961 14.2398 91.2585 13.8846C91.1209 13.5294 90.9128 13.2058 90.6466 12.9333C90.1276 12.4151 89.4242 12.1241 88.6908 12.1241C87.9574 12.1241 87.2539 12.4151 86.7349 12.9333C86.4691 13.206 86.2613 13.5297 86.1239 13.8849C85.9866 14.24 85.9225 14.6193 85.9357 14.9999C85.9225 15.3805 85.9866 15.7598 86.1239 16.115C86.2613 16.4701 86.4691 16.7938 86.7349 17.0665V17.0665Z" fill="white" stroke="white" stroke-width="0.2" stroke-miterlimit="10"/>
<path d="M93.6895 18.6001V11.4001H94.8156L98.3148 17.0011H98.3547L98.3148 15.6136V11.4001H99.2406V18.6001H98.275L94.614 12.7278H94.5742L94.614 14.1154V18.6001H93.6895Z" fill="white" stroke="white" stroke-width="0.2" stroke-miterlimit="10"/>
<path d="M84.7626 29.1019C83.754 29.1057 82.7691 29.4083 81.9324 29.9714C81.0956 30.5345 80.4444 31.333 80.0611 32.2659C79.6778 33.1988 79.5795 34.2244 79.7786 35.2132C79.9777 36.202 80.4653 37.1096 81.1799 37.8214C81.8944 38.5332 82.8039 39.0174 83.7934 39.2128C84.7829 39.4081 85.8081 39.3059 86.7396 38.919C87.671 38.5322 88.467 37.878 89.0269 37.0391C89.5869 36.2002 89.8857 35.2142 89.8857 34.2056C89.8956 33.531 89.7697 32.8612 89.5155 32.2363C89.2613 31.6113 88.884 31.0439 88.4061 30.5677C87.9281 30.0915 87.3592 29.7164 86.7333 29.4646C86.1073 29.2127 85.4372 29.0894 84.7626 29.1019V29.1019ZM84.7626 37.2988C84.1414 37.3431 83.5213 37.1993 82.983 36.8863C82.4447 36.5732 82.0132 36.1053 81.7445 35.5435C81.4758 34.9818 81.3825 34.3521 81.4767 33.7365C81.5709 33.121 81.8483 32.548 82.2726 32.0923C82.697 31.6366 83.2488 31.3192 83.8561 31.1814C84.4634 31.0437 85.0981 31.092 85.6775 31.32C86.257 31.548 86.7544 31.9452 87.105 32.4599C87.4555 32.9746 87.643 33.5828 87.6431 34.2056C87.6619 34.599 87.6019 34.9922 87.4664 35.362C87.331 35.7319 87.123 36.0709 86.8546 36.3591C86.5862 36.6474 86.2628 36.879 85.9036 37.0404C85.5443 37.2017 85.1563 37.2896 84.7626 37.2988V37.2988ZM73.5866 29.1019C72.5779 29.1057 71.5931 29.4082 70.7563 29.9714C69.9195 30.5345 69.2683 31.3329 68.885 32.2658C68.5016 33.1988 68.4033 34.2244 68.6024 35.2131C68.8015 36.2019 69.2891 37.1095 70.0037 37.8214C70.7182 38.5332 71.6277 39.0174 72.6172 39.2128C73.6067 39.4081 74.6319 39.3059 75.5634 38.9191C76.4949 38.5322 77.2908 37.878 77.8508 37.0391C78.4108 36.2002 78.7096 35.2142 78.7096 34.2056C78.7195 33.531 78.5936 32.8613 78.3394 32.2363C78.0852 31.6113 77.7079 31.0439 77.23 30.5677C76.752 30.0916 76.1831 29.7164 75.5572 29.4646C74.9313 29.2128 74.2611 29.0894 73.5866 29.1019V29.1019ZM73.5866 37.2988C72.9654 37.3431 72.3453 37.1993 71.807 36.8863C71.2687 36.5732 70.8371 36.1053 70.5685 35.5435C70.2998 34.9818 70.2065 34.3521 70.3007 33.7365C70.3949 33.121 70.6722 32.548 71.0966 32.0923C71.521 31.6366 72.0727 31.3192 72.68 31.1814C73.2873 31.0437 73.922 31.092 74.5015 31.32C75.081 31.548 75.5784 31.9452 75.9289 32.4599C76.2795 32.9746 76.467 33.5828 76.467 34.2056C76.4859 34.599 76.4259 34.9922 76.2904 35.362C76.155 35.7319 75.947 36.0709 75.6786 36.3591C75.4102 36.6474 75.0868 36.879 74.7275 37.0404C74.3683 37.2018 73.9803 37.2896 73.5866 37.2988ZM60.2921 30.6679V32.833H65.4733C65.3985 33.8486 64.9829 34.8091 64.2939 35.5589C63.7747 36.0882 63.1503 36.5027 62.461 36.7757C61.7717 37.0487 61.0329 37.1742 60.2921 37.1441C58.7777 37.1236 57.3322 36.5076 56.2685 35.4294C55.2049 34.3513 54.6085 32.8976 54.6085 31.3831C54.6085 29.8685 55.2049 28.4149 56.2685 27.3367C57.3322 26.2585 58.7777 25.6425 60.2921 25.622C61.7467 25.603 63.1501 26.1588 64.1973 27.1686L65.7246 25.6413C65.01 24.9339 64.1615 24.3763 63.2286 24.0012C62.2958 23.6261 61.2974 23.441 60.2921 23.4567C59.2415 23.4414 58.1983 23.6352 57.2232 24.0266C56.2482 24.4181 55.3606 24.9995 54.6123 25.7371C53.8639 26.4746 53.2696 27.3536 52.864 28.3228C52.4584 29.2921 52.2495 30.3323 52.2495 31.3831C52.2495 32.4338 52.4584 33.474 52.864 34.4433C53.2696 35.4126 53.8639 36.2915 54.6123 37.0291C55.3606 37.7666 56.2482 38.348 57.2232 38.7395C58.1983 39.131 59.2415 39.3247 60.2921 39.3094C61.3186 39.352 62.3425 39.1757 63.2957 38.7924C64.249 38.4091 65.1098 37.8275 65.8212 37.0862C67.084 35.7077 67.7572 33.8896 67.6965 32.0211C67.7015 31.5673 67.6626 31.1141 67.5804 30.6679H60.2921ZM114.662 32.3497C114.355 31.4252 113.771 30.6176 112.989 30.0366C112.208 29.4555 111.266 29.1292 110.293 29.1019C109.637 29.1059 108.989 29.2429 108.387 29.5046C107.786 29.7662 107.244 30.1471 106.794 30.6241C106.344 31.1012 105.996 31.6645 105.77 32.2801C105.544 32.8957 105.445 33.5507 105.479 34.2056C105.464 34.8766 105.585 35.5437 105.834 36.167C106.082 36.7904 106.454 37.3572 106.927 37.8336C107.4 38.31 107.964 38.6862 108.585 38.9398C109.207 39.1933 109.873 39.319 110.544 39.3094C111.385 39.314 112.214 39.1098 112.956 38.715C113.698 38.3202 114.331 37.7472 114.797 37.0475L113.057 35.8876C112.796 36.3205 112.428 36.6782 111.987 36.9256C111.547 37.173 111.049 37.3016 110.544 37.2988C110.024 37.3187 109.51 37.1819 109.069 36.9061C108.628 36.6303 108.279 36.2283 108.069 35.7522L114.894 32.9297L114.662 32.3497ZM107.702 34.051C107.678 33.6795 107.728 33.307 107.85 32.9552C107.972 32.6034 108.162 32.2794 108.411 32.0022C108.659 31.725 108.96 31.5001 109.297 31.3407C109.633 31.1813 109.998 31.0905 110.37 31.0738C110.757 31.0483 111.143 31.1374 111.48 31.3299C111.817 31.5225 112.09 31.8099 112.265 32.1565L107.702 34.051ZM102.154 39H104.396V23.9982H102.154V39ZM98.4804 30.2425H98.4032C98.0622 29.872 97.6461 29.5787 97.1827 29.382C96.7193 29.1853 96.2192 29.0898 95.7159 29.1019C94.3999 29.1579 93.1563 29.7201 92.2449 30.6711C91.3335 31.6221 90.8247 32.8884 90.8247 34.2056C90.8247 35.5228 91.3335 36.7892 92.2449 37.7402C93.1563 38.6912 94.3999 39.2534 95.7159 39.3094C96.2212 39.3228 96.7233 39.226 97.1874 39.0257C97.6515 38.8254 98.0664 38.5264 98.4032 38.1495H98.4804V38.8841C98.4804 40.8367 97.4366 41.8806 95.7545 41.8806C95.194 41.8672 94.6501 41.6872 94.1922 41.3636C93.7343 41.0399 93.3831 40.5873 93.1834 40.0633L91.2308 40.8754C91.5988 41.7714 92.226 42.5371 93.0319 43.0744C93.8379 43.6117 94.7859 43.8961 95.7545 43.8912C98.3838 43.8912 100.607 42.3446 100.607 38.5747V29.4111H98.4804V30.2425ZM95.9093 37.2988C95.1342 37.2331 94.412 36.8787 93.8857 36.3059C93.3594 35.7331 93.0673 34.9835 93.0673 34.2056C93.0673 33.4277 93.3594 32.6782 93.8857 32.1054C94.412 31.5325 95.1342 31.1782 95.9093 31.1125C96.295 31.1313 96.6728 31.2276 97.0205 31.3956C97.3681 31.5635 97.6783 31.7998 97.9327 32.0902C98.1871 32.3807 98.3803 32.7194 98.501 33.0861C98.6217 33.4529 98.6673 33.8401 98.6351 34.2249C98.6653 34.6072 98.618 34.9918 98.4961 35.3554C98.3742 35.7191 98.1803 36.0544 97.9258 36.3414C97.6713 36.6284 97.3616 36.8611 97.0151 37.0256C96.6686 37.1901 96.2925 37.283 95.9093 37.2988V37.2988ZM125.166 23.9984H119.801V39H122.04V33.3164H125.166C125.8 33.3511 126.433 33.2563 127.029 33.0379C127.624 32.8194 128.169 32.4819 128.63 32.0458C129.09 31.6098 129.457 31.0844 129.708 30.5018C129.958 29.9192 130.088 29.2916 130.088 28.6574C130.088 28.0231 129.958 27.3955 129.708 26.813C129.457 26.2304 129.09 25.705 128.63 25.269C128.169 24.8329 127.624 24.4954 127.029 24.2769C126.433 24.0585 125.8 23.9637 125.166 23.9984V23.9984ZM125.224 31.2286H122.04V26.0863H125.224C125.566 26.0792 125.906 26.1405 126.225 26.2665C126.543 26.3925 126.833 26.5808 127.077 26.8202C127.322 27.0597 127.516 27.3455 127.648 27.661C127.781 27.9765 127.849 28.3152 127.849 28.6575C127.849 28.9997 127.781 29.3384 127.648 29.6539C127.516 29.9694 127.322 30.2552 127.077 30.4947C126.833 30.7341 126.543 30.9224 126.225 31.0484C125.906 31.1744 125.566 31.2357 125.224 31.2286V31.2286ZM139.062 29.0743C138.245 29.0266 137.432 29.2185 136.722 29.6264C136.012 30.0344 135.437 30.6407 135.067 31.3709L137.055 32.2009C137.252 31.8384 137.551 31.5413 137.914 31.3459C138.277 31.1505 138.69 31.0653 139.101 31.1007C139.669 31.0452 140.236 31.2173 140.677 31.579C141.118 31.9408 141.398 32.4628 141.455 33.0307V33.1851C140.736 32.8031 139.934 32.6042 139.12 32.6061C136.978 32.6061 134.797 33.7834 134.797 35.9836C134.818 36.4473 134.931 36.9021 135.131 37.321C135.331 37.7398 135.613 38.1143 135.961 38.4221C136.308 38.7299 136.714 38.9648 137.154 39.1128C137.594 39.2609 138.059 39.319 138.522 39.2838C139.085 39.317 139.648 39.1984 140.15 38.9405C140.653 38.6825 141.077 38.2946 141.378 37.8171H141.455V38.9751H143.617V33.2237C143.617 30.5603 141.629 29.0743 139.062 29.0743V29.0743ZM138.792 37.2959C138.059 37.2959 137.036 36.9293 137.036 36.0221C137.036 34.8642 138.309 34.4202 139.41 34.4202C140.124 34.4012 140.831 34.5745 141.455 34.9221C141.373 35.5728 141.058 36.1717 140.568 36.6081C140.079 37.0444 139.448 37.2888 138.792 37.2959V37.2959ZM151.491 29.4024L148.924 35.9063H148.847L146.184 29.4024H143.771L147.766 38.4925L145.489 43.5491H147.824L153.981 29.4024H151.491ZM131.323 39H133.562V23.9984H131.323V39Z" fill="white"/>
<path d="M15.5221 12.0456C15.1286 12.5161 14.9299 13.1192 14.9668 13.7315V40.2707C14.9298 40.8829 15.1285 41.4861 15.5221 41.9565L15.6109 42.0431L30.4776 27.1765V26.8257L15.6109 11.9585L15.5221 12.0456Z" fill="url(#paint0_linear)"/>
<path d="M35.4333 32.1343L30.478 27.1766V26.8258L35.4345 21.8694L35.5462 21.9331L41.4175 25.2692C43.0946 26.222 43.0946 27.781 41.4175 28.7344L35.5462 32.0705L35.4333 32.1343Z" fill="url(#paint1_linear)"/>
<path d="M35.5462 32.0699L30.478 27.0012L15.5225 41.9566C15.8642 42.258 16.3006 42.4304 16.756 42.4438C17.2114 42.4573 17.6572 42.311 18.0162 42.0303L35.5462 32.0699Z" fill="url(#paint2_linear)"/>
<path d="M35.5462 21.9324L18.0162 11.972C17.6572 11.6913 17.2114 11.545 16.756 11.5585C16.3006 11.5719 15.8642 11.7443 15.5225 12.0457L30.478 27.0012L35.5462 21.9324Z" fill="url(#paint3_linear)"/>
<path opacity="0.2" d="M35.4344 31.9583L18.0162 41.855C17.6711 42.1177 17.2499 42.261 16.8162 42.2633C16.3824 42.2656 15.9597 42.1268 15.6119 41.8678L15.5225 41.9572L15.6113 42.0437L15.6119 42.0431C15.9597 42.3023 16.3824 42.4412 16.8162 42.4389C17.2499 42.4366 17.6711 42.2931 18.0162 42.0303L35.5462 32.0699L35.4344 31.9583Z" fill="#001F1D"/>
<path opacity="0.12" d="M15.5221 41.7818C15.1286 41.3113 14.93 40.7082 14.9667 40.0959V40.2713C14.9299 40.8835 15.1286 41.4866 15.5221 41.9571L15.6115 41.8677L15.5221 41.7818Z" fill="#001F1D"/>
<path opacity="0.12" d="M41.4171 28.5585L35.4341 31.9583L35.5458 32.0699L41.4171 28.7338C41.7625 28.5839 42.0614 28.3442 42.2826 28.0395C42.5039 27.7349 42.6394 27.3765 42.6751 27.0017C42.6008 27.3411 42.4485 27.6586 42.2301 27.9288C42.0118 28.199 41.7334 28.4146 41.4171 28.5585V28.5585Z" fill="#001F1D"/>
<path opacity="0.25" d="M18.0159 12.1479L41.4172 25.4438C41.7336 25.5876 42.012 25.8033 42.2304 26.0736C42.4488 26.344 42.6011 26.6616 42.6751 27.0011C42.6397 26.6262 42.5043 26.2676 42.283 25.9629C42.0617 25.6581 41.7627 25.4183 41.4172 25.2685L18.0159 11.9725C16.3388 11.0196 14.9668 11.8111 14.9668 13.7321V13.9074C14.9668 11.9866 16.3388 11.1951 18.0159 12.1479Z" fill="white"/>
<defs>
<linearGradient id="paint0_linear" x1="29.1593" y1="13.4517" x2="9.02047" y2="33.5905" gradientUnits="userSpaceOnUse">
<stop stop-color="#00A0FF"/>
<stop offset="0.00657" stop-color="#00A1FF"/>
<stop offset="0.2601" stop-color="#00BEFF"/>
<stop offset="0.5122" stop-color="#00D2FF"/>
<stop offset="0.7604" stop-color="#00DFFF"/>
<stop offset="1" stop-color="#00E3FF"/>
</linearGradient>
<linearGradient id="paint1_linear" x1="43.6011" y1="27.0018" x2="14.565" y2="27.0018" gradientUnits="userSpaceOnUse">
<stop stop-color="#FFE000"/>
<stop offset="0.4087" stop-color="#FFBD00"/>
<stop offset="0.7754" stop-color="#FFA500"/>
<stop offset="1" stop-color="#FF9C00"/>
</linearGradient>
<linearGradient id="paint2_linear" x1="32.7922" y1="29.7553" x2="5.48243" y2="57.0651" gradientUnits="userSpaceOnUse">
<stop stop-color="#FF3A44"/>
<stop offset="1" stop-color="#C31162"/>
</linearGradient>
<linearGradient id="paint3_linear" x1="11.7568" y1="3.21153" x2="23.9518" y2="15.4065" gradientUnits="userSpaceOnUse">
<stop stop-color="#32A071"/>
<stop offset="0.0685" stop-color="#2DA771"/>
<stop offset="0.4762" stop-color="#15CF74"/>
<stop offset="0.8009" stop-color="#06E775"/>
<stop offset="1" stop-color="#00F076"/>
</linearGradient>
</defs>
</svg>
