<svg width="655" height="200" viewBox="0 0 655 200" fill="none" xmlns="http://www.w3.org/2000/svg">
<path d="M96.2649 7.44591V132.673H69.4307V124.26C63.532 131.053 54.7564 135.163 42.7656 135.163C19.34 135.163 0 114.59 0 87.9246C0 61.2595 19.3159 40.6866 42.7656 40.6866C54.7564 40.6866 63.5078 44.7963 69.4307 51.5895V7.39758H96.2649V7.44591ZM69.4307 87.9488C69.4307 74.5316 60.4859 66.1187 48.1325 66.1187C35.779 66.1187 26.8343 74.5316 26.8343 87.9488C26.8343 101.366 35.779 109.779 48.1325 109.779C60.4617 109.779 69.4307 101.366 69.4307 87.9488Z" fill="#FEFEFE"/>
<path d="M207.712 43.2249V132.672H180.877V124.26C174.979 131.053 166.203 135.163 154.212 135.163C130.787 135.163 111.447 114.59 111.447 87.9245C111.447 61.2595 130.763 40.6865 154.212 40.6865C166.203 40.6865 174.955 44.7963 180.877 51.5895V43.1765H207.712V43.2249ZM180.877 87.9487C180.877 74.5316 171.933 66.1187 159.579 66.1187C147.226 66.1187 138.281 74.5316 138.281 87.9487C138.281 101.366 147.226 109.779 159.579 109.779C171.933 109.779 180.877 101.366 180.877 87.9487Z" fill="#FEFEFE"/>
<path d="M296.289 107.651V132.697H224.731V114.807L258.552 68.2944H226.52V43.2491H294.5V61.1387L260.679 107.651H296.289Z" fill="#FEFEFE"/>
<path d="M352.448 111.205C359.773 111.205 366.058 108.352 369.612 104.412L391.079 116.765C382.304 128.925 369.08 135.187 352.085 135.187C321.479 135.187 302.526 114.614 302.526 87.9487C302.526 61.2837 321.842 40.7107 350.127 40.7107C376.236 40.7107 395.576 60.921 395.576 87.9487C395.576 91.6958 395.213 95.2738 394.512 98.6824H331.004C334.389 107.99 342.608 111.205 352.448 111.205ZM368.911 78.6655C366.058 68.2944 358.008 64.5231 349.958 64.5231C339.756 64.5231 332.963 69.5274 330.448 78.6655H368.911Z" fill="#FEFEFE"/>
<path d="M410.782 43.225H437.616V132.672H410.782V43.225Z" fill="#FEFEFE"/>
<path d="M654.635 77.7711V132.697H627.801V81.7116C627.801 70.6152 620.815 65.4418 612.232 65.4418C602.393 65.4418 595.6 71.1713 595.6 83.8632V132.697H568.766V43.2491H595.6V51.662C600.435 45.0381 609.38 40.7591 621.177 40.7591C639.26 40.7349 654.635 53.6202 654.635 77.7711Z" fill="#FEFEFE"/>
<path d="M560.522 173.166V200H445.691V173.166H489.689V150.272H516.524V173.166H560.522ZM503.106 136.879C529.723 136.879 551.094 116.064 551.094 89.085C551.094 62.1056 529.723 41.2909 503.106 41.2909C476.49 41.2909 455.119 62.1056 455.119 89.085C455.119 116.04 476.49 136.879 503.106 136.879ZM503.106 110.431C491.333 110.431 482.292 101.922 482.292 89.0608C482.292 76.1996 491.333 67.6901 503.106 67.6901C514.88 67.6901 523.921 76.1996 523.921 89.0608C523.921 101.922 514.88 110.431 503.106 110.431Z" fill="#662D91"/>
<path d="M437.616 0H410.782V26.8343H437.616V0Z" fill="#FEFEFE"/>
</svg>
