<svg width="1871" height="1796" viewBox="0 0 1871 1796" fill="none" xmlns="http://www.w3.org/2000/svg">
<g clip-path="url(#clip0_2426_4897)">
<mask id="mask0_2426_4897" style="mask-type:alpha" maskUnits="userSpaceOnUse" x="-635" y="-387" width="3045" height="2930">
<path opacity="0.02" d="M469.885 11.9045V92.9958H122.874V11.9045H255.833V-57.2783H336.925V11.9045H469.885ZM296.379 -97.7506C376.813 -97.7506 441.393 -160.651 441.393 -242.18C441.393 -323.71 376.813 -386.61 296.379 -386.61C215.946 -386.61 151.365 -323.71 151.365 -242.18C151.365 -160.724 215.946 -97.7506 296.379 -97.7506ZM296.379 -177.673C260.802 -177.673 233.479 -203.388 233.479 -242.254C233.479 -281.119 260.802 -306.834 296.379 -306.834C331.957 -306.834 359.28 -281.119 359.28 -242.254C359.28 -203.388 331.957 -177.673 296.379 -177.673Z" fill="url(#paint0_linear_2426_4897)"/>
<path opacity="0.02" d="M1227.76 11.9045V92.9958H880.747V11.9045H1013.71V-57.2783H1094.8V11.9045H1227.76ZM1054.25 -97.7506C1134.69 -97.7506 1199.27 -160.651 1199.27 -242.18C1199.27 -323.71 1134.69 -386.61 1054.25 -386.61C973.819 -386.61 909.238 -323.71 909.238 -242.18C909.238 -160.724 973.819 -97.7506 1054.25 -97.7506ZM1054.25 -177.673C1018.67 -177.673 991.352 -203.388 991.352 -242.254C991.352 -281.119 1018.67 -306.834 1054.25 -306.834C1089.83 -306.834 1117.15 -281.119 1117.15 -242.254C1117.15 -203.388 1089.83 -177.673 1054.25 -177.673Z" fill="url(#paint1_linear_2426_4897)"/>
<path opacity="0.02" d="M1985.63 11.9045V92.9958H1638.62V11.9045H1771.58V-57.2783H1852.67V11.9045H1985.63ZM1812.13 -97.7506C1892.56 -97.7506 1957.14 -160.651 1957.14 -242.18C1957.14 -323.71 1892.56 -386.61 1812.13 -386.61C1731.69 -386.61 1667.11 -323.71 1667.11 -242.18C1667.11 -160.724 1731.69 -97.7506 1812.13 -97.7506ZM1812.13 -177.673C1776.55 -177.673 1749.23 -203.388 1749.23 -242.254C1749.23 -281.119 1776.55 -306.834 1812.13 -306.834C1847.7 -306.834 1875.03 -281.119 1875.03 -242.254C1875.03 -203.388 1847.7 -177.673 1812.13 -177.673Z" fill="url(#paint2_linear_2426_4897)"/>
<path opacity="0.02" d="M111.683 624.202V705.293H-235.328V624.202H-102.368V555.019H-21.2771V624.202H111.683ZM-61.8226 514.546C18.611 514.546 83.1914 451.646 83.1914 370.117C83.1914 288.587 18.611 225.687 -61.8226 225.687C-142.256 225.687 -206.837 288.587 -206.837 370.117C-206.837 451.573 -142.256 514.546 -61.8226 514.546ZM-61.8226 434.624C-97.4003 434.624 -124.723 408.909 -124.723 370.043C-124.723 331.178 -97.4003 305.463 -61.8226 305.463C-26.2448 305.463 1.07767 331.178 1.07767 370.043C1.07767 408.909 -26.2448 434.624 -61.8226 434.624Z" fill="url(#paint3_linear_2426_4897)"/>
<path opacity="0.02" d="M877.55 624.202V705.293H530.539V624.202H663.499V555.019H744.59V624.202H877.55ZM704.045 514.546C784.478 514.546 849.059 451.646 849.059 370.117C849.059 288.587 784.478 225.687 704.045 225.687C623.611 225.687 559.03 288.587 559.03 370.117C559.03 451.573 623.611 514.546 704.045 514.546ZM704.045 434.624C668.467 434.624 641.144 408.909 641.144 370.043C641.144 331.178 668.467 305.463 704.045 305.463C739.622 305.463 766.945 331.178 766.945 370.043C766.945 408.909 739.622 434.624 704.045 434.624Z" fill="url(#paint4_linear_2426_4897)"/>
<path opacity="0.02" d="M1643.42 624.202V705.293H1296.41V624.202H1429.37V555.019H1510.46V624.202H1643.42ZM1469.91 514.546C1550.34 514.546 1614.93 451.646 1614.93 370.117C1614.93 288.587 1550.34 225.687 1469.91 225.687C1389.48 225.687 1324.9 288.587 1324.9 370.117C1324.9 451.573 1389.48 514.546 1469.91 514.546ZM1469.91 434.624C1434.33 434.624 1407.01 408.909 1407.01 370.043C1407.01 331.178 1434.33 305.463 1469.91 305.463C1505.49 305.463 1532.81 331.178 1532.81 370.043C1532.81 408.909 1505.49 434.624 1469.91 434.624Z" fill="url(#paint5_linear_2426_4897)"/>
<path opacity="0.02" d="M469.885 1236.5V1317.59H122.874V1236.5H255.833V1167.32H336.925V1236.5H469.885ZM296.379 1126.84C376.813 1126.84 441.393 1063.94 441.393 982.414C441.393 900.884 376.813 837.984 296.379 837.984C215.946 837.984 151.365 900.884 151.365 982.414C151.365 1063.87 215.946 1126.84 296.379 1126.84ZM296.379 1046.92C260.802 1046.92 233.479 1021.21 233.479 982.341C233.479 943.475 260.802 917.76 296.379 917.76C331.957 917.76 359.28 943.475 359.28 982.341C359.28 1021.21 331.957 1046.92 296.379 1046.92Z" fill="url(#paint6_linear_2426_4897)"/>
<path opacity="0.02" d="M1227.76 1236.5V1317.59H880.747V1236.5H1013.71V1167.32H1094.8V1236.5H1227.76ZM1054.25 1126.84C1134.69 1126.84 1199.27 1063.94 1199.27 982.414C1199.27 900.884 1134.69 837.984 1054.25 837.984C973.819 837.984 909.238 900.884 909.238 982.414C909.238 1063.87 973.819 1126.84 1054.25 1126.84ZM1054.25 1046.92C1018.67 1046.92 991.352 1021.21 991.352 982.341C991.352 943.475 1018.67 917.76 1054.25 917.76C1089.83 917.76 1117.15 943.475 1117.15 982.341C1117.15 1021.21 1089.83 1046.92 1054.25 1046.92Z" fill="url(#paint7_linear_2426_4897)"/>
<path opacity="0.02" d="M1985.63 1236.5V1317.59H1638.62V1236.5H1771.58V1167.32H1852.67V1236.5H1985.63ZM1812.13 1126.84C1892.56 1126.84 1957.14 1063.94 1957.14 982.414C1957.14 900.884 1892.56 837.984 1812.13 837.984C1731.69 837.984 1667.11 900.884 1667.11 982.414C1667.11 1063.87 1731.69 1126.84 1812.13 1126.84ZM1812.13 1046.92C1776.55 1046.92 1749.23 1021.21 1749.23 982.341C1749.23 943.475 1776.55 917.76 1812.13 917.76C1847.7 917.76 1875.03 943.475 1875.03 982.341C1875.03 1021.21 1847.7 1046.92 1812.13 1046.92Z" fill="url(#paint8_linear_2426_4897)"/>
<path opacity="0.02" d="M469.885 1848.8V1929.89H122.874V1848.8H255.833V1779.61H336.925V1848.8H469.885ZM296.379 1739.14C376.813 1739.14 441.393 1676.24 441.393 1594.71C441.393 1513.18 376.813 1450.28 296.379 1450.28C215.946 1450.28 151.365 1513.18 151.365 1594.71C151.365 1676.17 215.946 1739.14 296.379 1739.14ZM296.379 1659.22C260.802 1659.22 233.479 1633.5 233.479 1594.64C233.479 1555.77 260.802 1530.06 296.379 1530.06C331.957 1530.06 359.28 1555.77 359.28 1594.64C359.28 1633.5 331.957 1659.22 296.379 1659.22Z" fill="url(#paint9_linear_2426_4897)"/>
<path opacity="0.02" d="M1227.76 1848.8V1929.89H880.747V1848.8H1013.71V1779.61H1094.8V1848.8H1227.76ZM1054.25 1739.14C1134.69 1739.14 1199.27 1676.24 1199.27 1594.71C1199.27 1513.18 1134.69 1450.28 1054.25 1450.28C973.819 1450.28 909.238 1513.18 909.238 1594.71C909.238 1676.17 973.819 1739.14 1054.25 1739.14ZM1054.25 1659.22C1018.67 1659.22 991.352 1633.5 991.352 1594.64C991.352 1555.77 1018.67 1530.06 1054.25 1530.06C1089.83 1530.06 1117.15 1555.77 1117.15 1594.64C1117.15 1633.5 1089.83 1659.22 1054.25 1659.22Z" fill="url(#paint10_linear_2426_4897)"/>
<path opacity="0.02" d="M1985.63 1848.8V1929.89H1638.62V1848.8H1771.58V1779.61H1852.67V1848.8H1985.63ZM1812.13 1739.14C1892.56 1739.14 1957.14 1676.24 1957.14 1594.71C1957.14 1513.18 1892.56 1450.28 1812.13 1450.28C1731.69 1450.28 1667.11 1513.18 1667.11 1594.71C1667.11 1676.17 1731.69 1739.14 1812.13 1739.14ZM1812.13 1659.22C1776.55 1659.22 1749.23 1633.5 1749.23 1594.64C1749.23 1555.77 1776.55 1530.06 1812.13 1530.06C1847.7 1530.06 1875.03 1555.77 1875.03 1594.64C1875.03 1633.5 1847.7 1659.22 1812.13 1659.22Z" fill="url(#paint11_linear_2426_4897)"/>
</mask>
<g mask="url(#mask0_2426_4897)">
<circle cx="897" cy="898.25" r="897.25" fill="#D9D9D9"/>
</g>
<g filter="url(#filter0_f_2426_4897)">
<circle cx="504" cy="596" r="184" fill="#FFFF00" fill-opacity="0.24"/>
</g>
</g>
<defs>
<filter id="filter0_f_2426_4897" x="74.6667" y="166.667" width="858.667" height="858.667" filterUnits="userSpaceOnUse" color-interpolation-filters="sRGB">
<feFlood flood-opacity="0" result="BackgroundImageFix"/>
<feBlend mode="normal" in="SourceGraphic" in2="BackgroundImageFix" result="shape"/>
<feGaussianBlur stdDeviation="122.667" result="effect1_foregroundBlur_2426_4897"/>
</filter>
<linearGradient id="paint0_linear_2426_4897" x1="469.501" y1="-146.807" x2="122.586" y2="-146.807" gradientUnits="userSpaceOnUse">
<stop stop-color="white"/>
<stop offset="1" stop-color="white" stop-opacity="0.27"/>
</linearGradient>
<linearGradient id="paint1_linear_2426_4897" x1="1227.37" y1="-146.807" x2="880.459" y2="-146.807" gradientUnits="userSpaceOnUse">
<stop stop-color="white"/>
<stop offset="1" stop-color="white" stop-opacity="0.27"/>
</linearGradient>
<linearGradient id="paint2_linear_2426_4897" x1="1985.25" y1="-146.807" x2="1638.33" y2="-146.807" gradientUnits="userSpaceOnUse">
<stop stop-color="white"/>
<stop offset="1" stop-color="white" stop-opacity="0.27"/>
</linearGradient>
<linearGradient id="paint3_linear_2426_4897" x1="111.299" y1="465.49" x2="-235.616" y2="465.49" gradientUnits="userSpaceOnUse">
<stop stop-color="white"/>
<stop offset="1" stop-color="white" stop-opacity="0.27"/>
</linearGradient>
<linearGradient id="paint4_linear_2426_4897" x1="877.166" y1="465.49" x2="530.251" y2="465.49" gradientUnits="userSpaceOnUse">
<stop stop-color="white"/>
<stop offset="1" stop-color="white" stop-opacity="0.27"/>
</linearGradient>
<linearGradient id="paint5_linear_2426_4897" x1="1643.03" y1="465.49" x2="1296.12" y2="465.49" gradientUnits="userSpaceOnUse">
<stop stop-color="white"/>
<stop offset="1" stop-color="white" stop-opacity="0.27"/>
</linearGradient>
<linearGradient id="paint6_linear_2426_4897" x1="469.501" y1="1077.79" x2="122.586" y2="1077.79" gradientUnits="userSpaceOnUse">
<stop stop-color="white"/>
<stop offset="1" stop-color="white" stop-opacity="0.27"/>
</linearGradient>
<linearGradient id="paint7_linear_2426_4897" x1="1227.37" y1="1077.79" x2="880.459" y2="1077.79" gradientUnits="userSpaceOnUse">
<stop stop-color="white"/>
<stop offset="1" stop-color="white" stop-opacity="0.27"/>
</linearGradient>
<linearGradient id="paint8_linear_2426_4897" x1="1985.25" y1="1077.79" x2="1638.33" y2="1077.79" gradientUnits="userSpaceOnUse">
<stop stop-color="white"/>
<stop offset="1" stop-color="white" stop-opacity="0.27"/>
</linearGradient>
<linearGradient id="paint9_linear_2426_4897" x1="469.501" y1="1690.08" x2="122.586" y2="1690.08" gradientUnits="userSpaceOnUse">
<stop stop-color="white"/>
<stop offset="1" stop-color="white" stop-opacity="0.27"/>
</linearGradient>
<linearGradient id="paint10_linear_2426_4897" x1="1227.37" y1="1690.08" x2="880.459" y2="1690.08" gradientUnits="userSpaceOnUse">
<stop stop-color="white"/>
<stop offset="1" stop-color="white" stop-opacity="0.27"/>
</linearGradient>
<linearGradient id="paint11_linear_2426_4897" x1="1985.25" y1="1690.08" x2="1638.33" y2="1690.08" gradientUnits="userSpaceOnUse">
<stop stop-color="white"/>
<stop offset="1" stop-color="white" stop-opacity="0.27"/>
</linearGradient>
<clipPath id="clip0_2426_4897">
<rect width="1871" height="1796" fill="white"/>
</clipPath>
</defs>
</svg>
