<svg width="1871" height="1796" viewBox="0 0 1871 1796" fill="none" xmlns="http://www.w3.org/2000/svg">
<g clip-path="url(#clip0_2426_4897)">
<mask id="mask0_2426_4897" style="mask-type:alpha" maskUnits="userSpaceOnUse" x="-635" y="-387" width="3045" height="2930">
<path opacity="0.02" d="M261.833 11.9045V-51.2783H330.925V11.9045V17.9045H336.925H463.885V86.9958H128.874V17.9045H255.833H261.833V11.9045ZM435.393 -242.18C435.393 -164.026 373.561 -103.751 296.379 -103.751C219.2 -103.751 157.365 -164.097 157.365 -242.18C157.365 -320.335 219.198 -380.61 296.379 -380.61C373.561 -380.61 435.393 -320.335 435.393 -242.18ZM227.479 -242.254C227.479 -200.079 257.483 -171.673 296.379 -171.673C335.275 -171.673 365.28 -200.079 365.28 -242.254C365.28 -284.428 335.275 -312.834 296.379 -312.834C257.483 -312.834 227.479 -284.428 227.479 -242.254Z" stroke="url(#paint0_linear_2426_4897)" stroke-width="12"/>
<path opacity="0.02" d="M1019.71 11.9045V-51.2783H1088.8V11.9045V17.9045H1094.8H1221.76V86.9958H886.747V17.9045H1013.71H1019.71V11.9045ZM1193.27 -242.18C1193.27 -164.026 1131.43 -103.751 1054.25 -103.751C977.073 -103.751 915.238 -164.097 915.238 -242.18C915.238 -320.335 977.071 -380.61 1054.25 -380.61C1131.43 -380.61 1193.27 -320.335 1193.27 -242.18ZM985.352 -242.254C985.352 -200.079 1015.36 -171.673 1054.25 -171.673C1093.15 -171.673 1123.15 -200.079 1123.15 -242.254C1123.15 -284.428 1093.15 -312.834 1054.25 -312.834C1015.36 -312.834 985.352 -284.428 985.352 -242.254Z" stroke="url(#paint1_linear_2426_4897)" stroke-width="12"/>
<path opacity="0.02" d="M1777.58 11.9045V-51.2783H1846.67V11.9045V17.9045H1852.67H1979.63V86.9958H1644.62V17.9045H1771.58H1777.58V11.9045ZM1951.14 -242.18C1951.14 -164.026 1889.31 -103.751 1812.13 -103.751C1734.95 -103.751 1673.11 -164.097 1673.11 -242.18C1673.11 -320.335 1734.94 -380.61 1812.13 -380.61C1889.31 -380.61 1951.14 -320.335 1951.14 -242.18ZM1743.23 -242.254C1743.23 -200.079 1773.23 -171.673 1812.13 -171.673C1851.02 -171.673 1881.03 -200.079 1881.03 -242.254C1881.03 -284.428 1851.02 -312.834 1812.13 -312.834C1773.23 -312.834 1743.23 -284.428 1743.23 -242.254Z" stroke="url(#paint2_linear_2426_4897)" stroke-width="12"/>
<path opacity="0.02" d="M-96.3684 624.202V561.019H-27.2771V624.202V630.202H-21.2771H105.683V699.293H-229.328V630.202H-102.368H-96.3684V624.202ZM77.1914 370.117C77.1914 448.271 15.3589 508.546 -61.8226 508.546C-139.002 508.546 -200.837 448.2 -200.837 370.117C-200.837 291.962 -139.004 231.687 -61.8226 231.687C15.3589 231.687 77.1914 291.962 77.1914 370.117ZM-130.723 370.043C-130.723 412.218 -100.719 440.624 -61.8226 440.624C-22.9265 440.624 7.07767 412.218 7.07767 370.043C7.07767 327.869 -22.9265 299.463 -61.8226 299.463C-100.719 299.463 -130.723 327.869 -130.723 370.043Z" stroke="url(#paint3_linear_2426_4897)" stroke-width="12"/>
<path opacity="0.02" d="M669.499 624.202V561.019H738.59V624.202V630.202H744.59H871.55V699.293H536.539V630.202H663.499H669.499V624.202ZM843.059 370.117C843.059 448.271 781.226 508.546 704.045 508.546C626.865 508.546 565.03 448.2 565.03 370.117C565.03 291.962 626.863 231.687 704.045 231.687C781.226 231.687 843.059 291.962 843.059 370.117ZM635.144 370.043C635.144 412.218 665.149 440.624 704.045 440.624C742.941 440.624 772.945 412.218 772.945 370.043C772.945 327.869 742.941 299.463 704.045 299.463C665.149 299.463 635.144 327.869 635.144 370.043Z" stroke="url(#paint4_linear_2426_4897)" stroke-width="12"/>
<path opacity="0.02" d="M1435.37 624.202V561.019H1504.46V624.202V630.202H1510.46H1637.42V699.293H1302.41V630.202H1429.37H1435.37V624.202ZM1608.93 370.117C1608.93 448.271 1547.09 508.546 1469.91 508.546C1392.73 508.546 1330.9 448.2 1330.9 370.117C1330.9 291.962 1392.73 231.687 1469.91 231.687C1547.09 231.687 1608.93 291.962 1608.93 370.117ZM1401.01 370.043C1401.01 412.218 1431.02 440.624 1469.91 440.624C1508.81 440.624 1538.81 412.218 1538.81 370.043C1538.81 327.869 1508.81 299.463 1469.91 299.463C1431.02 299.463 1401.01 327.869 1401.01 370.043Z" stroke="url(#paint5_linear_2426_4897)" stroke-width="12"/>
<path opacity="0.02" d="M261.833 1236.5V1173.32H330.925V1236.5V1242.5H336.925H463.885V1311.59H128.874V1242.5H255.833H261.833V1236.5ZM435.393 982.414C435.393 1060.57 373.561 1120.84 296.379 1120.84C219.2 1120.84 157.365 1060.5 157.365 982.414C157.365 904.259 219.198 843.984 296.379 843.984C373.561 843.984 435.393 904.259 435.393 982.414ZM227.479 982.341C227.479 1024.52 257.483 1052.92 296.379 1052.92C335.275 1052.92 365.28 1024.51 365.28 982.341C365.28 940.166 335.275 911.76 296.379 911.76C257.483 911.76 227.479 940.166 227.479 982.341Z" stroke="url(#paint6_linear_2426_4897)" stroke-width="12"/>
<path opacity="0.02" d="M1019.71 1236.5V1173.32H1088.8V1236.5V1242.5H1094.8H1221.76V1311.59H886.747V1242.5H1013.71H1019.71V1236.5ZM1193.27 982.414C1193.27 1060.57 1131.43 1120.84 1054.25 1120.84C977.073 1120.84 915.238 1060.5 915.238 982.414C915.238 904.259 977.071 843.984 1054.25 843.984C1131.43 843.984 1193.27 904.259 1193.27 982.414ZM985.352 982.341C985.352 1024.52 1015.36 1052.92 1054.25 1052.92C1093.15 1052.92 1123.15 1024.51 1123.15 982.341C1123.15 940.166 1093.15 911.76 1054.25 911.76C1015.36 911.76 985.352 940.166 985.352 982.341Z" stroke="url(#paint7_linear_2426_4897)" stroke-width="12"/>
<path opacity="0.02" d="M1777.58 1236.5V1173.32H1846.67V1236.5V1242.5H1852.67H1979.63V1311.59H1644.62V1242.5H1771.58H1777.58V1236.5ZM1951.14 982.414C1951.14 1060.57 1889.31 1120.84 1812.13 1120.84C1734.95 1120.84 1673.11 1060.5 1673.11 982.414C1673.11 904.259 1734.94 843.984 1812.13 843.984C1889.31 843.984 1951.14 904.259 1951.14 982.414ZM1743.23 982.341C1743.23 1024.52 1773.23 1052.92 1812.13 1052.92C1851.02 1052.92 1881.03 1024.51 1881.03 982.341C1881.03 940.166 1851.02 911.76 1812.13 911.76C1773.23 911.76 1743.23 940.166 1743.23 982.341Z" stroke="url(#paint8_linear_2426_4897)" stroke-width="12"/>
<path opacity="0.02" d="M261.833 1848.8V1785.61H330.925V1848.8V1854.8H336.925H463.885V1923.89H128.874V1854.8H255.833H261.833V1848.8ZM435.393 1594.71C435.393 1672.87 373.561 1733.14 296.379 1733.14C219.2 1733.14 157.365 1672.79 157.365 1594.71C157.365 1516.56 219.198 1456.28 296.379 1456.28C373.561 1456.28 435.393 1516.56 435.393 1594.71ZM227.479 1594.64C227.479 1636.81 257.483 1665.22 296.379 1665.22C335.275 1665.22 365.28 1636.81 365.28 1594.64C365.28 1552.46 335.275 1524.06 296.379 1524.06C257.483 1524.06 227.479 1552.46 227.479 1594.64Z" stroke="url(#paint9_linear_2426_4897)" stroke-width="12"/>
<path opacity="0.02" d="M1019.71 1848.8V1785.61H1088.8V1848.8V1854.8H1094.8H1221.76V1923.89H886.747V1854.8H1013.71H1019.71V1848.8ZM1193.27 1594.71C1193.27 1672.87 1131.43 1733.14 1054.25 1733.14C977.073 1733.14 915.238 1672.79 915.238 1594.71C915.238 1516.56 977.071 1456.28 1054.25 1456.28C1131.43 1456.28 1193.27 1516.56 1193.27 1594.71ZM985.352 1594.64C985.352 1636.81 1015.36 1665.22 1054.25 1665.22C1093.15 1665.22 1123.15 1636.81 1123.15 1594.64C1123.15 1552.46 1093.15 1524.06 1054.25 1524.06C1015.36 1524.06 985.352 1552.46 985.352 1594.64Z" stroke="url(#paint10_linear_2426_4897)" stroke-width="12"/>
<path opacity="0.02" d="M1777.58 1848.8V1785.61H1846.67V1848.8V1854.8H1852.67H1979.63V1923.89H1644.62V1854.8H1771.58H1777.58V1848.8ZM1951.14 1594.71C1951.14 1672.87 1889.31 1733.14 1812.13 1733.14C1734.95 1733.14 1673.11 1672.79 1673.11 1594.71C1673.11 1516.56 1734.94 1456.28 1812.13 1456.28C1889.31 1456.28 1951.14 1516.56 1951.14 1594.71ZM1743.23 1594.64C1743.23 1636.81 1773.23 1665.22 1812.13 1665.22C1851.02 1665.22 1881.03 1636.81 1881.03 1594.64C1881.03 1552.46 1851.02 1524.06 1812.13 1524.06C1773.23 1524.06 1743.23 1552.46 1743.23 1594.64Z" stroke="url(#paint11_linear_2426_4897)" stroke-width="12"/>
</mask>
<g mask="url(#mask0_2426_4897)">
<circle cx="1114.5" cy="898.25" r="1726.5" fill="#D9D9D9"/>
</g>
<g filter="url(#filter0_f_2426_4897)">
<circle cx="504" cy="596" r="184" fill="#FFFF00" fill-opacity="0.24"/>
</g>
</g>
<defs>
<filter id="filter0_f_2426_4897" x="74.6667" y="166.667" width="858.667" height="858.667" filterUnits="userSpaceOnUse" color-interpolation-filters="sRGB">
<feFlood flood-opacity="0" result="BackgroundImageFix"/>
<feBlend mode="normal" in="SourceGraphic" in2="BackgroundImageFix" result="shape"/>
<feGaussianBlur stdDeviation="122.667" result="effect1_foregroundBlur_2426_4897"/>
</filter>
<linearGradient id="paint0_linear_2426_4897" x1="469.501" y1="-146.807" x2="122.586" y2="-146.807" gradientUnits="userSpaceOnUse">
<stop stop-color="white"/>
<stop offset="1" stop-color="white" stop-opacity="0.27"/>
</linearGradient>
<linearGradient id="paint1_linear_2426_4897" x1="1227.37" y1="-146.807" x2="880.459" y2="-146.807" gradientUnits="userSpaceOnUse">
<stop stop-color="white"/>
<stop offset="1" stop-color="white" stop-opacity="0.27"/>
</linearGradient>
<linearGradient id="paint2_linear_2426_4897" x1="1985.25" y1="-146.807" x2="1638.33" y2="-146.807" gradientUnits="userSpaceOnUse">
<stop stop-color="white"/>
<stop offset="1" stop-color="white" stop-opacity="0.27"/>
</linearGradient>
<linearGradient id="paint3_linear_2426_4897" x1="111.299" y1="465.49" x2="-235.616" y2="465.49" gradientUnits="userSpaceOnUse">
<stop stop-color="white"/>
<stop offset="1" stop-color="white" stop-opacity="0.27"/>
</linearGradient>
<linearGradient id="paint4_linear_2426_4897" x1="877.166" y1="465.49" x2="530.251" y2="465.49" gradientUnits="userSpaceOnUse">
<stop stop-color="white"/>
<stop offset="1" stop-color="white" stop-opacity="0.27"/>
</linearGradient>
<linearGradient id="paint5_linear_2426_4897" x1="1643.03" y1="465.49" x2="1296.12" y2="465.49" gradientUnits="userSpaceOnUse">
<stop stop-color="white"/>
<stop offset="1" stop-color="white" stop-opacity="0.27"/>
</linearGradient>
<linearGradient id="paint6_linear_2426_4897" x1="469.501" y1="1077.79" x2="122.586" y2="1077.79" gradientUnits="userSpaceOnUse">
<stop stop-color="white"/>
<stop offset="1" stop-color="white" stop-opacity="0.27"/>
</linearGradient>
<linearGradient id="paint7_linear_2426_4897" x1="1227.37" y1="1077.79" x2="880.459" y2="1077.79" gradientUnits="userSpaceOnUse">
<stop stop-color="white"/>
<stop offset="1" stop-color="white" stop-opacity="0.27"/>
</linearGradient>
<linearGradient id="paint8_linear_2426_4897" x1="1985.25" y1="1077.79" x2="1638.33" y2="1077.79" gradientUnits="userSpaceOnUse">
<stop stop-color="white"/>
<stop offset="1" stop-color="white" stop-opacity="0.27"/>
</linearGradient>
<linearGradient id="paint9_linear_2426_4897" x1="469.501" y1="1690.08" x2="122.586" y2="1690.08" gradientUnits="userSpaceOnUse">
<stop stop-color="white"/>
<stop offset="1" stop-color="white" stop-opacity="0.27"/>
</linearGradient>
<linearGradient id="paint10_linear_2426_4897" x1="1227.37" y1="1690.08" x2="880.459" y2="1690.08" gradientUnits="userSpaceOnUse">
<stop stop-color="white"/>
<stop offset="1" stop-color="white" stop-opacity="0.27"/>
</linearGradient>
<linearGradient id="paint11_linear_2426_4897" x1="1985.25" y1="1690.08" x2="1638.33" y2="1690.08" gradientUnits="userSpaceOnUse">
<stop stop-color="white"/>
<stop offset="1" stop-color="white" stop-opacity="0.27"/>
</linearGradient>
<clipPath id="clip0_2426_4897">
<rect width="1871" height="1796" fill="white"/>
</clipPath>
</defs>
</svg>
