<svg width="1871" height="1796" viewBox="0 0 1871 1796" fill="none" xmlns="http://www.w3.org/2000/svg">
<g clip-path="url(#clip0_2426_4897)">
<mask id="mask0_2426_4897" style="mask-type:alpha" maskUnits="userSpaceOnUse" x="-163" y="-134" width="2118" height="2036">
<path opacity="0.06" d="M-65.5422 143.034V99.1116H-17.5123V143.034V147.205H-13.3412H74.9172V195.235H-157.971V147.205H-69.7132H-65.5422V143.034ZM55.1108 -33.5972C55.1108 20.7331 12.1269 62.6346 -41.5271 62.6346C-95.1796 62.6346 -138.165 20.6837 -138.165 -33.5972C-138.165 -87.9275 -95.181 -129.829 -41.5271 -129.829C12.1269 -129.829 55.1108 -87.9275 55.1108 -33.5972ZM-89.4245 -33.648C-89.4245 -4.32979 -68.5663 15.4172 -41.5271 15.4172C-14.4878 15.4172 6.37006 -4.32983 6.37006 -33.648C6.37006 -62.9663 -14.4878 -82.7133 -41.5271 -82.7133C-68.5663 -82.7133 -89.4245 -62.9663 -89.4245 -33.648Z" stroke="url(#paint0_linear_2426_4897)" stroke-width="8.342"/>
<path opacity="0.06" d="M461.306 143.034V99.1116H509.336V143.034V147.205H513.507H601.766V195.235H368.877V147.205H457.135H461.306V143.034ZM581.959 -33.5972C581.959 20.7331 538.975 62.6346 485.321 62.6346C431.669 62.6346 388.683 20.6837 388.683 -33.5972C388.683 -87.9275 431.667 -129.829 485.321 -129.829C538.975 -129.829 581.959 -87.9275 581.959 -33.5972ZM437.424 -33.648C437.424 -4.32979 458.282 15.4172 485.321 15.4172C512.361 15.4172 533.218 -4.32983 533.218 -33.648C533.218 -62.9663 512.361 -82.7133 485.321 -82.7133C458.282 -82.7133 437.424 -62.9663 437.424 -33.648Z" stroke="url(#paint1_linear_2426_4897)" stroke-width="8.342"/>
<path opacity="0.06" d="M988.154 143.034V99.1116H1036.18V143.034V147.205H1040.36H1128.61V195.235H895.725V147.205H983.983H988.154V143.034ZM1108.81 -33.5972C1108.81 20.7331 1065.82 62.6346 1012.17 62.6346C958.517 62.6346 915.531 20.6837 915.531 -33.5972C915.531 -87.9275 958.516 -129.829 1012.17 -129.829C1065.82 -129.829 1108.81 -87.9275 1108.81 -33.5972ZM964.272 -33.648C964.272 -4.32979 985.13 15.4172 1012.17 15.4172C1039.21 15.4172 1060.07 -4.32983 1060.07 -33.648C1060.07 -62.9663 1039.21 -82.7133 1012.17 -82.7133C985.13 -82.7133 964.272 -62.9663 964.272 -33.648Z" stroke="url(#paint2_linear_2426_4897)" stroke-width="8.342"/>
<path opacity="0.06" d="M1515 143.034V99.1116H1563.03V143.034V147.205H1567.2H1655.46V195.235H1422.57V147.205H1510.83H1515V143.034ZM1635.66 -33.5972C1635.66 20.7331 1592.67 62.6346 1539.02 62.6346C1485.37 62.6346 1442.38 20.6837 1442.38 -33.5972C1442.38 -87.9275 1485.36 -129.829 1539.02 -129.829C1592.67 -129.829 1635.66 -87.9275 1635.66 -33.5972ZM1491.12 -33.648C1491.12 -4.32979 1511.98 15.4172 1539.02 15.4172C1566.06 15.4172 1586.92 -4.32983 1586.92 -33.648C1586.92 -62.9663 1566.06 -82.7133 1539.02 -82.7133C1511.98 -82.7133 1491.12 -62.9663 1491.12 -33.648Z" stroke="url(#paint3_linear_2426_4897)" stroke-width="8.342"/>
<path opacity="0.06" d="M212.296 568.682V524.76H260.326V568.682V572.853H264.497H352.756V620.883H119.867V572.853H208.125H212.296V568.682ZM332.949 392.051C332.949 446.381 289.965 488.283 236.311 488.283C182.659 488.283 139.673 446.332 139.673 392.051C139.673 337.721 182.657 295.819 236.311 295.819C289.965 295.819 332.949 337.721 332.949 392.051ZM188.414 392C188.414 421.319 209.272 441.066 236.311 441.066C263.351 441.066 284.208 421.318 284.208 392C284.208 362.682 263.351 342.935 236.311 342.935C209.272 342.935 188.414 362.682 188.414 392Z" stroke="url(#paint4_linear_2426_4897)" stroke-width="8.342"/>
<path opacity="0.06" d="M744.702 568.682V524.76H792.732V568.682V572.853H796.903H885.161V620.883H652.273V572.853H740.531H744.702V568.682ZM865.355 392.051C865.355 446.381 822.371 488.283 768.717 488.283C715.064 488.283 672.079 446.332 672.079 392.051C672.079 337.721 715.063 295.819 768.717 295.819C822.371 295.819 865.355 337.721 865.355 392.051ZM720.819 392C720.819 421.319 741.678 441.066 768.717 441.066C795.756 441.066 816.614 421.318 816.614 392C816.614 362.682 795.756 342.935 768.717 342.935C741.678 342.935 720.819 362.682 720.819 392Z" stroke="url(#paint5_linear_2426_4897)" stroke-width="8.342"/>
<path opacity="0.06" d="M1277.11 568.682V524.76H1325.14V568.682V572.853H1329.31H1417.57V620.883H1184.68V572.853H1272.94H1277.11V568.682ZM1397.76 392.051C1397.76 446.381 1354.78 488.283 1301.12 488.283C1247.47 488.283 1204.48 446.332 1204.48 392.051C1204.48 337.721 1247.47 295.819 1301.12 295.819C1354.78 295.819 1397.76 337.721 1397.76 392.051ZM1253.22 392C1253.22 421.319 1274.08 441.066 1301.12 441.066C1328.16 441.066 1349.02 421.318 1349.02 392C1349.02 362.682 1328.16 342.935 1301.12 342.935C1274.08 342.935 1253.22 362.682 1253.22 392Z" stroke="url(#paint6_linear_2426_4897)" stroke-width="8.342"/>
<path opacity="0.06" d="M1809.51 568.683V524.76H1857.54V568.683V572.854H1861.71H1949.97V620.884H1717.08V572.854H1805.34H1809.51V568.683ZM1930.17 392.051C1930.17 446.382 1887.18 488.283 1833.53 488.283C1779.87 488.283 1736.89 446.332 1736.89 392.051C1736.89 337.721 1779.87 295.819 1833.53 295.819C1887.18 295.819 1930.17 337.721 1930.17 392.051ZM1785.63 392C1785.63 421.319 1806.49 441.066 1833.53 441.066C1860.57 441.066 1881.42 421.319 1881.42 392C1881.42 362.682 1860.57 342.935 1833.53 342.935C1806.49 342.935 1785.63 362.682 1785.63 392Z" stroke="url(#paint7_linear_2426_4897)" stroke-width="8.342"/>
<path opacity="0.06" d="M-65.5422 994.331V950.408H-17.5123V994.331V998.502H-13.3412H74.9172V1046.53H-157.971V998.502H-69.7132H-65.5422V994.331ZM55.1108 817.7C55.1108 872.03 12.1269 913.931 -41.5271 913.931C-95.1796 913.931 -138.165 871.981 -138.165 817.7C-138.165 763.369 -95.181 721.468 -41.5271 721.468C12.1269 721.468 55.1108 763.369 55.1108 817.7ZM-89.4245 817.649C-89.4245 846.967 -68.5663 866.714 -41.5271 866.714C-14.4878 866.714 6.37006 846.967 6.37006 817.649C6.37006 788.331 -14.4878 768.584 -41.5271 768.584C-68.5663 768.584 -89.4245 788.331 -89.4245 817.649Z" stroke="url(#paint8_linear_2426_4897)" stroke-width="8.342"/>
<path opacity="0.06" d="M461.306 994.331V950.408H509.336V994.331V998.502H513.507H601.766V1046.53H368.877V998.502H457.135H461.306V994.331ZM581.959 817.7C581.959 872.03 538.975 913.931 485.321 913.931C431.669 913.931 388.683 871.981 388.683 817.7C388.683 763.369 431.667 721.468 485.321 721.468C538.975 721.468 581.959 763.369 581.959 817.7ZM437.424 817.649C437.424 846.967 458.282 866.714 485.321 866.714C512.361 866.714 533.218 846.967 533.218 817.649C533.218 788.331 512.361 768.584 485.321 768.584C458.282 768.584 437.424 788.331 437.424 817.649Z" stroke="url(#paint9_linear_2426_4897)" stroke-width="8.342"/>
<path opacity="0.06" d="M988.154 994.331V950.408H1036.18V994.331V998.502H1040.36H1128.61V1046.53H895.725V998.502H983.983H988.154V994.331ZM1108.81 817.7C1108.81 872.03 1065.82 913.931 1012.17 913.931C958.517 913.931 915.531 871.981 915.531 817.7C915.531 763.369 958.516 721.468 1012.17 721.468C1065.82 721.468 1108.81 763.369 1108.81 817.7ZM964.272 817.649C964.272 846.967 985.13 866.714 1012.17 866.714C1039.21 866.714 1060.07 846.967 1060.07 817.649C1060.07 788.331 1039.21 768.584 1012.17 768.584C985.13 768.584 964.272 788.331 964.272 817.649Z" stroke="url(#paint10_linear_2426_4897)" stroke-width="8.342"/>
<path opacity="0.06" d="M1515 994.331V950.408H1563.03V994.331V998.502H1567.2H1655.46V1046.53H1422.57V998.502H1510.83H1515V994.331ZM1635.66 817.7C1635.66 872.03 1592.67 913.931 1539.02 913.931C1485.37 913.931 1442.38 871.981 1442.38 817.7C1442.38 763.369 1485.36 721.468 1539.02 721.468C1592.67 721.468 1635.66 763.369 1635.66 817.7ZM1491.12 817.649C1491.12 846.967 1511.98 866.714 1539.02 866.714C1566.06 866.714 1586.92 846.967 1586.92 817.649C1586.92 788.331 1566.06 768.584 1539.02 768.584C1511.98 768.584 1491.12 788.331 1491.12 817.649Z" stroke="url(#paint11_linear_2426_4897)" stroke-width="8.342"/>
<path opacity="0.06" d="M-65.5422 1419.98V1376.06H-17.5123V1419.98V1424.15H-13.3412H74.9172V1472.18H-157.971V1424.15H-69.7132H-65.5422V1419.98ZM55.1108 1243.35C55.1108 1297.68 12.1269 1339.58 -41.5271 1339.58C-95.1796 1339.58 -138.165 1297.63 -138.165 1243.35C-138.165 1189.02 -95.181 1147.12 -41.5271 1147.12C12.1269 1147.12 55.1108 1189.02 55.1108 1243.35ZM-89.4245 1243.3C-89.4245 1272.62 -68.5663 1292.36 -41.5271 1292.36C-14.4878 1292.36 6.37006 1272.62 6.37006 1243.3C6.37006 1213.98 -14.4878 1194.23 -41.5271 1194.23C-68.5663 1194.23 -89.4245 1213.98 -89.4245 1243.3Z" stroke="url(#paint12_linear_2426_4897)" stroke-width="8.342"/>
<path opacity="0.06" d="M461.306 1419.98V1376.06H509.336V1419.98V1424.15H513.507H601.766V1472.18H368.877V1424.15H457.135H461.306V1419.98ZM581.959 1243.35C581.959 1297.68 538.975 1339.58 485.321 1339.58C431.669 1339.58 388.683 1297.63 388.683 1243.35C388.683 1189.02 431.667 1147.12 485.321 1147.12C538.975 1147.12 581.959 1189.02 581.959 1243.35ZM437.424 1243.3C437.424 1272.62 458.282 1292.36 485.321 1292.36C512.361 1292.36 533.218 1272.62 533.218 1243.3C533.218 1213.98 512.361 1194.23 485.321 1194.23C458.282 1194.23 437.424 1213.98 437.424 1243.3Z" stroke="url(#paint13_linear_2426_4897)" stroke-width="8.342"/>
<path opacity="0.06" d="M988.154 1419.98V1376.06H1036.18V1419.98V1424.15H1040.36H1128.61V1472.18H895.725V1424.15H983.983H988.154V1419.98ZM1108.81 1243.35C1108.81 1297.68 1065.82 1339.58 1012.17 1339.58C958.517 1339.58 915.531 1297.63 915.531 1243.35C915.531 1189.02 958.516 1147.12 1012.17 1147.12C1065.82 1147.12 1108.81 1189.02 1108.81 1243.35ZM964.272 1243.3C964.272 1272.62 985.13 1292.36 1012.17 1292.36C1039.21 1292.36 1060.07 1272.62 1060.07 1243.3C1060.07 1213.98 1039.21 1194.23 1012.17 1194.23C985.13 1194.23 964.272 1213.98 964.272 1243.3Z" stroke="url(#paint14_linear_2426_4897)" stroke-width="8.342"/>
<path opacity="0.06" d="M1515 1419.98V1376.06H1563.03V1419.98V1424.15H1567.2H1655.46V1472.18H1422.57V1424.15H1510.83H1515V1419.98ZM1635.66 1243.35C1635.66 1297.68 1592.67 1339.58 1539.02 1339.58C1485.37 1339.58 1442.38 1297.63 1442.38 1243.35C1442.38 1189.02 1485.36 1147.12 1539.02 1147.12C1592.67 1147.12 1635.66 1189.02 1635.66 1243.35ZM1491.12 1243.3C1491.12 1272.62 1511.98 1292.36 1539.02 1292.36C1566.06 1292.36 1586.92 1272.62 1586.92 1243.3C1586.92 1213.98 1566.06 1194.23 1539.02 1194.23C1511.98 1194.23 1491.12 1213.98 1491.12 1243.3Z" stroke="url(#paint15_linear_2426_4897)" stroke-width="8.342"/>
<path opacity="0.06" d="M-65.5422 1845.63V1801.71H-17.5123V1845.63V1849.8H-13.3412H74.9172V1897.83H-157.971V1849.8H-69.7132H-65.5422V1845.63ZM55.1108 1669C55.1108 1723.33 12.1269 1765.23 -41.5271 1765.23C-95.1796 1765.23 -138.165 1723.28 -138.165 1669C-138.165 1614.67 -95.181 1572.76 -41.5271 1572.76C12.1269 1572.76 55.1108 1614.67 55.1108 1669ZM-89.4245 1668.95C-89.4245 1698.26 -68.5663 1718.01 -41.5271 1718.01C-14.4878 1718.01 6.37006 1698.26 6.37006 1668.95C6.37006 1639.63 -14.4878 1619.88 -41.5271 1619.88C-68.5663 1619.88 -89.4245 1639.63 -89.4245 1668.95Z" stroke="url(#paint16_linear_2426_4897)" stroke-width="8.342"/>
<path opacity="0.06" d="M466.863 1845.63V1801.71H514.893V1845.63V1849.8H519.064H607.322V1897.83H374.434V1849.8H462.692H466.863V1845.63ZM587.516 1669C587.516 1723.33 544.532 1765.23 490.878 1765.23C437.225 1765.23 394.24 1723.28 394.24 1669C394.24 1614.67 437.224 1572.76 490.878 1572.76C544.532 1572.76 587.516 1614.67 587.516 1669ZM442.981 1668.95C442.981 1698.26 463.839 1718.01 490.878 1718.01C517.917 1718.01 538.775 1698.26 538.775 1668.95C538.775 1639.63 517.917 1619.88 490.878 1619.88C463.839 1619.88 442.981 1639.63 442.981 1668.95Z" stroke="url(#paint17_linear_2426_4897)" stroke-width="8.342"/>
<path opacity="0.06" d="M999.268 1845.63V1801.71H1047.3V1845.63V1849.8H1051.47H1139.73V1897.83H906.839V1849.8H995.097H999.268V1845.63ZM1119.92 1669C1119.92 1723.33 1076.94 1765.23 1023.28 1765.23C969.631 1765.23 926.645 1723.28 926.645 1669C926.645 1614.67 969.629 1572.76 1023.28 1572.76C1076.94 1572.76 1119.92 1614.67 1119.92 1669ZM975.386 1668.95C975.386 1698.26 996.244 1718.01 1023.28 1718.01C1050.32 1718.01 1071.18 1698.26 1071.18 1668.95C1071.18 1639.63 1050.32 1619.88 1023.28 1619.88C996.244 1619.88 975.386 1639.63 975.386 1668.95Z" stroke="url(#paint18_linear_2426_4897)" stroke-width="8.342"/>
<path opacity="0.06" d="M1531.67 1845.63V1801.71H1579.7V1845.63V1849.8H1583.87H1672.13V1897.83H1439.24V1849.8H1527.5H1531.67V1845.63ZM1652.33 1669C1652.33 1723.33 1609.34 1765.23 1555.69 1765.23C1502.04 1765.23 1459.05 1723.28 1459.05 1669C1459.05 1614.67 1502.03 1572.76 1555.69 1572.76C1609.34 1572.76 1652.33 1614.67 1652.33 1669ZM1507.79 1668.95C1507.79 1698.26 1528.65 1718.01 1555.69 1718.01C1582.73 1718.01 1603.59 1698.26 1603.59 1668.95C1603.59 1639.63 1582.73 1619.88 1555.69 1619.88C1528.65 1619.88 1507.79 1639.63 1507.79 1668.95Z" stroke="url(#paint19_linear_2426_4897)" stroke-width="8.342"/>
</mask>
<g mask="url(#mask0_2426_4897)">
<circle cx="1114.5" cy="898.25" r="1726.5" fill="#D9D9D9"/>
</g>
<g filter="url(#filter0_f_2426_4897)">
<circle cx="334" cy="336" r="184" fill="#FFFF00" fill-opacity="0.24"/>
</g>
</g>
<defs>
<filter id="filter0_f_2426_4897" x="-95.3333" y="-93.3333" width="858.667" height="858.667" filterUnits="userSpaceOnUse" color-interpolation-filters="sRGB">
<feFlood flood-opacity="0" result="BackgroundImageFix"/>
<feBlend mode="normal" in="SourceGraphic" in2="BackgroundImageFix" result="shape"/>
<feGaussianBlur stdDeviation="122.667" result="effect1_foregroundBlur_2426_4897"/>
</filter>
<linearGradient id="paint0_linear_2426_4897" x1="78.8212" y1="32.7031" x2="-162.343" y2="32.7031" gradientUnits="userSpaceOnUse">
<stop stop-color="white"/>
<stop offset="1" stop-color="white" stop-opacity="0.27"/>
</linearGradient>
<linearGradient id="paint1_linear_2426_4897" x1="605.67" y1="32.7031" x2="364.506" y2="32.7031" gradientUnits="userSpaceOnUse">
<stop stop-color="white"/>
<stop offset="1" stop-color="white" stop-opacity="0.27"/>
</linearGradient>
<linearGradient id="paint2_linear_2426_4897" x1="1132.52" y1="32.7031" x2="891.354" y2="32.7031" gradientUnits="userSpaceOnUse">
<stop stop-color="white"/>
<stop offset="1" stop-color="white" stop-opacity="0.27"/>
</linearGradient>
<linearGradient id="paint3_linear_2426_4897" x1="1659.37" y1="32.7031" x2="1418.2" y2="32.7031" gradientUnits="userSpaceOnUse">
<stop stop-color="white"/>
<stop offset="1" stop-color="white" stop-opacity="0.27"/>
</linearGradient>
<linearGradient id="paint4_linear_2426_4897" x1="356.66" y1="458.351" x2="115.496" y2="458.351" gradientUnits="userSpaceOnUse">
<stop stop-color="white"/>
<stop offset="1" stop-color="white" stop-opacity="0.27"/>
</linearGradient>
<linearGradient id="paint5_linear_2426_4897" x1="889.065" y1="458.351" x2="647.901" y2="458.351" gradientUnits="userSpaceOnUse">
<stop stop-color="white"/>
<stop offset="1" stop-color="white" stop-opacity="0.27"/>
</linearGradient>
<linearGradient id="paint6_linear_2426_4897" x1="1421.47" y1="458.351" x2="1180.31" y2="458.351" gradientUnits="userSpaceOnUse">
<stop stop-color="white"/>
<stop offset="1" stop-color="white" stop-opacity="0.27"/>
</linearGradient>
<linearGradient id="paint7_linear_2426_4897" x1="1953.88" y1="458.352" x2="1712.71" y2="458.352" gradientUnits="userSpaceOnUse">
<stop stop-color="white"/>
<stop offset="1" stop-color="white" stop-opacity="0.27"/>
</linearGradient>
<linearGradient id="paint8_linear_2426_4897" x1="78.8212" y1="884" x2="-162.343" y2="884" gradientUnits="userSpaceOnUse">
<stop stop-color="white"/>
<stop offset="1" stop-color="white" stop-opacity="0.27"/>
</linearGradient>
<linearGradient id="paint9_linear_2426_4897" x1="605.67" y1="884" x2="364.506" y2="884" gradientUnits="userSpaceOnUse">
<stop stop-color="white"/>
<stop offset="1" stop-color="white" stop-opacity="0.27"/>
</linearGradient>
<linearGradient id="paint10_linear_2426_4897" x1="1132.52" y1="884" x2="891.354" y2="884" gradientUnits="userSpaceOnUse">
<stop stop-color="white"/>
<stop offset="1" stop-color="white" stop-opacity="0.27"/>
</linearGradient>
<linearGradient id="paint11_linear_2426_4897" x1="1659.37" y1="884" x2="1418.2" y2="884" gradientUnits="userSpaceOnUse">
<stop stop-color="white"/>
<stop offset="1" stop-color="white" stop-opacity="0.27"/>
</linearGradient>
<linearGradient id="paint12_linear_2426_4897" x1="78.8212" y1="1309.65" x2="-162.343" y2="1309.65" gradientUnits="userSpaceOnUse">
<stop stop-color="white"/>
<stop offset="1" stop-color="white" stop-opacity="0.27"/>
</linearGradient>
<linearGradient id="paint13_linear_2426_4897" x1="605.67" y1="1309.65" x2="364.506" y2="1309.65" gradientUnits="userSpaceOnUse">
<stop stop-color="white"/>
<stop offset="1" stop-color="white" stop-opacity="0.27"/>
</linearGradient>
<linearGradient id="paint14_linear_2426_4897" x1="1132.52" y1="1309.65" x2="891.354" y2="1309.65" gradientUnits="userSpaceOnUse">
<stop stop-color="white"/>
<stop offset="1" stop-color="white" stop-opacity="0.27"/>
</linearGradient>
<linearGradient id="paint15_linear_2426_4897" x1="1659.37" y1="1309.65" x2="1418.2" y2="1309.65" gradientUnits="userSpaceOnUse">
<stop stop-color="white"/>
<stop offset="1" stop-color="white" stop-opacity="0.27"/>
</linearGradient>
<linearGradient id="paint16_linear_2426_4897" x1="78.8212" y1="1735.3" x2="-162.343" y2="1735.3" gradientUnits="userSpaceOnUse">
<stop stop-color="white"/>
<stop offset="1" stop-color="white" stop-opacity="0.27"/>
</linearGradient>
<linearGradient id="paint17_linear_2426_4897" x1="611.226" y1="1735.3" x2="370.062" y2="1735.3" gradientUnits="userSpaceOnUse">
<stop stop-color="white"/>
<stop offset="1" stop-color="white" stop-opacity="0.27"/>
</linearGradient>
<linearGradient id="paint18_linear_2426_4897" x1="1143.63" y1="1735.3" x2="902.468" y2="1735.3" gradientUnits="userSpaceOnUse">
<stop stop-color="white"/>
<stop offset="1" stop-color="white" stop-opacity="0.27"/>
</linearGradient>
<linearGradient id="paint19_linear_2426_4897" x1="1676.04" y1="1735.3" x2="1434.87" y2="1735.3" gradientUnits="userSpaceOnUse">
<stop stop-color="white"/>
<stop offset="1" stop-color="white" stop-opacity="0.27"/>
</linearGradient>
<clipPath id="clip0_2426_4897">
<rect width="1871" height="1796" fill="white"/>
</clipPath>
</defs>
</svg>
