<svg width="2001" height="977" viewBox="0 0 2001 977" fill="none" xmlns="http://www.w3.org/2000/svg">
<g clip-path="url(#clip0_2426_4897)">
<mask id="mask0_2426_4897" style="mask-type:alpha" maskUnits="userSpaceOnUse" x="-33" y="-95" width="2035" height="1958">
<g opacity="0.07">
<path d="M60.6627 172.144V129.947H106.806V172.144V176.152H110.813H195.604V222.295H-28.1352V176.152H56.6555H60.6627V172.144ZM176.576 2.45235C176.576 54.6482 135.28 94.9035 83.7343 94.9035C32.1896 94.9035 -9.10721 54.6007 -9.10721 2.45235C-9.10721 -49.7435 32.1883 -89.9988 83.7343 -89.9988C135.28 -89.9988 176.576 -49.7435 176.576 2.45235ZM37.7186 2.40351C37.7186 30.5699 57.7574 49.5411 83.7343 49.5411C109.711 49.5411 129.75 30.5699 129.75 2.40351C129.75 -25.7629 109.711 -44.7341 83.7343 -44.7341C57.7574 -44.7341 37.7186 -25.7629 37.7186 2.40351Z" stroke="url(#paint0_linear_2426_4897)" stroke-width="8.01427"/>
<path d="M566.813 172.144V129.947H612.956V172.144V176.152H616.963H701.754V222.295H478.015V176.152H562.806H566.813V172.144ZM682.726 2.45235C682.726 54.6482 641.43 94.9035 589.884 94.9035C538.34 94.9035 497.043 54.6007 497.043 2.45235C497.043 -49.7435 538.338 -89.9988 589.884 -89.9988C641.43 -89.9988 682.726 -49.7435 682.726 2.45235ZM543.869 2.40351C543.869 30.5699 563.908 49.5411 589.884 49.5411C615.861 49.5411 635.9 30.5699 635.9 2.40351C635.9 -25.7629 615.861 -44.7341 589.884 -44.7341C563.908 -44.7341 543.869 -25.7629 543.869 2.40351Z" stroke="url(#paint1_linear_2426_4897)" stroke-width="8.01427"/>
<path d="M1072.96 172.144V129.947H1119.11V172.144V176.152H1123.11H1207.9V222.295H984.165V176.152H1068.96H1072.96V172.144ZM1188.88 2.45235C1188.88 54.6482 1147.58 94.9035 1096.03 94.9035C1044.49 94.9035 1003.19 54.6007 1003.19 2.45235C1003.19 -49.7435 1044.49 -89.9988 1096.03 -89.9988C1147.58 -89.9988 1188.88 -49.7435 1188.88 2.45235ZM1050.02 2.40351C1050.02 30.5699 1070.06 49.5411 1096.03 49.5411C1122.01 49.5411 1142.05 30.5699 1142.05 2.40351C1142.05 -25.7629 1122.01 -44.7341 1096.03 -44.7341C1070.06 -44.7341 1050.02 -25.7629 1050.02 2.40351Z" stroke="url(#paint2_linear_2426_4897)" stroke-width="8.01427"/>
<path d="M1579.11 172.144V129.947H1625.26V172.144V176.152H1629.26H1714.05V222.295H1490.32V176.152H1575.11H1579.11V172.144ZM1695.03 2.45235C1695.03 54.6482 1653.73 94.9035 1602.18 94.9035C1550.64 94.9035 1509.34 54.6007 1509.34 2.45235C1509.34 -49.7435 1550.64 -89.9988 1602.18 -89.9988C1653.73 -89.9988 1695.03 -49.7435 1695.03 2.45235ZM1556.17 2.40351C1556.17 30.5699 1576.21 49.5411 1602.18 49.5411C1628.16 49.5411 1648.2 30.5699 1648.2 2.40351C1648.2 -25.7629 1628.16 -44.7341 1602.18 -44.7341C1576.21 -44.7341 1556.17 -25.7629 1556.17 2.40351Z" stroke="url(#paint3_linear_2426_4897)" stroke-width="8.01427"/>
<path d="M327.586 581.07V538.873H373.729V581.07V585.077H377.736H462.527V631.22H238.788V585.077H323.579H327.586V581.07ZM443.499 411.378C443.499 463.574 402.203 503.829 350.657 503.829C299.113 503.829 257.816 463.527 257.816 411.378C257.816 359.182 299.111 318.927 350.657 318.927C402.203 318.927 443.499 359.182 443.499 411.378ZM304.642 411.329C304.642 439.496 324.68 458.467 350.657 458.467C376.634 458.467 396.673 439.496 396.673 411.329C396.673 383.163 376.634 364.192 350.657 364.192C324.68 364.192 304.642 383.163 304.642 411.329Z" stroke="url(#paint4_linear_2426_4897)" stroke-width="8.01427"/>
<path d="M839.075 581.07V538.873H885.218V581.07V585.077H889.225H974.016V631.22H750.277V585.077H835.067H839.075V581.07ZM954.987 411.378C954.987 463.574 913.692 503.829 862.146 503.829C810.601 503.829 769.305 463.527 769.305 411.378C769.305 359.182 810.6 318.927 862.146 318.927C913.692 318.927 954.987 359.182 954.987 411.378ZM816.13 411.329C816.13 439.496 836.169 458.467 862.146 458.467C888.123 458.467 908.162 439.496 908.162 411.329C908.162 383.163 888.123 364.192 862.146 364.192C836.169 364.192 816.13 383.163 816.13 411.329Z" stroke="url(#paint5_linear_2426_4897)" stroke-width="8.01427"/>
<path d="M1350.56 581.07V538.873H1396.71V581.07V585.077H1400.71H1485.5V631.22H1261.76V585.077H1346.56H1350.56V581.07ZM1466.48 411.378C1466.48 463.574 1425.18 503.829 1373.63 503.829C1322.09 503.829 1280.79 463.527 1280.79 411.378C1280.79 359.182 1322.09 318.927 1373.63 318.927C1425.18 318.927 1466.48 359.182 1466.48 411.378ZM1327.62 411.329C1327.62 439.496 1347.66 458.467 1373.63 458.467C1399.61 458.467 1419.65 439.496 1419.65 411.329C1419.65 383.163 1399.61 364.192 1373.63 364.192C1347.66 364.192 1327.62 383.163 1327.62 411.329Z" stroke="url(#paint6_linear_2426_4897)" stroke-width="8.01427"/>
<path d="M1862.05 581.07V538.873H1908.2V581.07V585.078H1912.2H1996.99V631.221H1773.25V585.078H1858.04H1862.05V581.07ZM1977.96 411.378C1977.96 463.574 1936.67 503.829 1885.12 503.829C1833.58 503.829 1792.28 463.527 1792.28 411.378C1792.28 359.182 1833.58 318.927 1885.12 318.927C1936.67 318.927 1977.96 359.182 1977.96 411.378ZM1839.11 411.329C1839.11 439.496 1859.15 458.467 1885.12 458.467C1911.1 458.467 1931.14 439.496 1931.14 411.329C1931.14 383.163 1911.1 364.192 1885.12 364.192C1859.15 364.192 1839.11 383.163 1839.11 411.329Z" stroke="url(#paint7_linear_2426_4897)" stroke-width="8.01427"/>
<path d="M60.6627 989.997V947.8H106.806V989.997V994.004H110.813H195.604V1040.15H-28.1352V994.004H56.6555H60.6627V989.997ZM176.576 820.304C176.576 872.5 135.28 912.756 83.7343 912.756C32.1896 912.756 -9.10721 872.453 -9.10721 820.304C-9.10721 768.109 32.1883 727.853 83.7343 727.853C135.28 727.853 176.576 768.109 176.576 820.304ZM37.7186 820.256C37.7186 848.422 57.7574 867.393 83.7343 867.393C109.711 867.393 129.75 848.422 129.75 820.256C129.75 792.089 109.711 773.118 83.7343 773.118C57.7574 773.118 37.7186 792.089 37.7186 820.256Z" stroke="url(#paint8_linear_2426_4897)" stroke-width="8.01427"/>
<path d="M566.813 989.996V947.799H612.956V989.996V994.004H616.963H701.754V1040.15H478.015V994.004H562.806H566.813V989.996ZM682.726 820.304C682.726 872.5 641.43 912.755 589.884 912.755C538.34 912.755 497.043 872.453 497.043 820.304C497.043 768.109 538.338 727.853 589.884 727.853C641.43 727.853 682.726 768.109 682.726 820.304ZM543.869 820.256C543.869 848.422 563.908 867.393 589.884 867.393C615.861 867.393 635.9 848.422 635.9 820.256C635.9 792.089 615.861 773.118 589.884 773.118C563.908 773.118 543.869 792.089 543.869 820.256Z" stroke="url(#paint9_linear_2426_4897)" stroke-width="8.01427"/>
<path d="M1072.96 989.997V947.8H1119.11V989.997V994.004H1123.11H1207.9V1040.15H984.165V994.004H1068.96H1072.96V989.997ZM1188.88 820.304C1188.88 872.5 1147.58 912.756 1096.03 912.756C1044.49 912.756 1003.19 872.453 1003.19 820.304C1003.19 768.109 1044.49 727.853 1096.03 727.853C1147.58 727.853 1188.88 768.109 1188.88 820.304ZM1050.02 820.256C1050.02 848.422 1070.06 867.393 1096.03 867.393C1122.01 867.393 1142.05 848.422 1142.05 820.256C1142.05 792.089 1122.01 773.118 1096.03 773.118C1070.06 773.118 1050.02 792.089 1050.02 820.256Z" stroke="url(#paint10_linear_2426_4897)" stroke-width="8.01427"/>
<path d="M1579.11 989.996V947.799H1625.26V989.996V994.004H1629.26H1714.05V1040.15H1490.32V994.004H1575.11H1579.11V989.996ZM1695.03 820.304C1695.03 872.5 1653.73 912.755 1602.18 912.755C1550.64 912.755 1509.34 872.453 1509.34 820.304C1509.34 768.109 1550.64 727.853 1602.18 727.853C1653.73 727.853 1695.03 768.109 1695.03 820.304ZM1556.17 820.256C1556.17 848.422 1576.21 867.393 1602.18 867.393C1628.16 867.393 1648.2 848.422 1648.2 820.256C1648.2 792.089 1628.16 773.118 1602.18 773.118C1576.21 773.118 1556.17 792.089 1556.17 820.256Z" stroke="url(#paint11_linear_2426_4897)" stroke-width="8.01427"/>
</g>
</mask>
<g mask="url(#mask0_2426_4897)">
<circle cx="1194.34" cy="897.69" r="1658.67" fill="#D9D9D9"/>
</g>
<g filter="url(#filter0_f_2426_4897)">
<circle cx="334" cy="336" r="184" fill="#FFFF00" fill-opacity="0.24"/>
</g>
</g>
<defs>
<filter id="filter0_f_2426_4897" x="-95.3333" y="-93.3333" width="858.667" height="858.667" filterUnits="userSpaceOnUse" color-interpolation-filters="sRGB">
<feFlood flood-opacity="0" result="BackgroundImageFix"/>
<feBlend mode="normal" in="SourceGraphic" in2="BackgroundImageFix" result="shape"/>
<feGaussianBlur stdDeviation="122.667" result="effect1_foregroundBlur_2426_4897"/>
</filter>
<linearGradient id="paint0_linear_2426_4897" x1="199.354" y1="66.1479" x2="-32.3347" y2="66.1479" gradientUnits="userSpaceOnUse">
<stop stop-color="white"/>
<stop offset="1" stop-color="white" stop-opacity="0.27"/>
</linearGradient>
<linearGradient id="paint1_linear_2426_4897" x1="705.505" y1="66.1479" x2="473.815" y2="66.1479" gradientUnits="userSpaceOnUse">
<stop stop-color="white"/>
<stop offset="1" stop-color="white" stop-opacity="0.27"/>
</linearGradient>
<linearGradient id="paint2_linear_2426_4897" x1="1211.66" y1="66.1479" x2="979.966" y2="66.1479" gradientUnits="userSpaceOnUse">
<stop stop-color="white"/>
<stop offset="1" stop-color="white" stop-opacity="0.27"/>
</linearGradient>
<linearGradient id="paint3_linear_2426_4897" x1="1717.8" y1="66.1479" x2="1486.12" y2="66.1479" gradientUnits="userSpaceOnUse">
<stop stop-color="white"/>
<stop offset="1" stop-color="white" stop-opacity="0.27"/>
</linearGradient>
<linearGradient id="paint4_linear_2426_4897" x1="466.278" y1="475.074" x2="234.588" y2="475.074" gradientUnits="userSpaceOnUse">
<stop stop-color="white"/>
<stop offset="1" stop-color="white" stop-opacity="0.27"/>
</linearGradient>
<linearGradient id="paint5_linear_2426_4897" x1="977.766" y1="475.074" x2="746.077" y2="475.074" gradientUnits="userSpaceOnUse">
<stop stop-color="white"/>
<stop offset="1" stop-color="white" stop-opacity="0.27"/>
</linearGradient>
<linearGradient id="paint6_linear_2426_4897" x1="1489.25" y1="475.074" x2="1257.57" y2="475.074" gradientUnits="userSpaceOnUse">
<stop stop-color="white"/>
<stop offset="1" stop-color="white" stop-opacity="0.27"/>
</linearGradient>
<linearGradient id="paint7_linear_2426_4897" x1="2000.74" y1="475.074" x2="1769.05" y2="475.074" gradientUnits="userSpaceOnUse">
<stop stop-color="white"/>
<stop offset="1" stop-color="white" stop-opacity="0.27"/>
</linearGradient>
<linearGradient id="paint8_linear_2426_4897" x1="199.354" y1="884" x2="-32.3347" y2="884" gradientUnits="userSpaceOnUse">
<stop stop-color="white"/>
<stop offset="1" stop-color="white" stop-opacity="0.27"/>
</linearGradient>
<linearGradient id="paint9_linear_2426_4897" x1="705.505" y1="884" x2="473.815" y2="884" gradientUnits="userSpaceOnUse">
<stop stop-color="white"/>
<stop offset="1" stop-color="white" stop-opacity="0.27"/>
</linearGradient>
<linearGradient id="paint10_linear_2426_4897" x1="1211.66" y1="884" x2="979.966" y2="884" gradientUnits="userSpaceOnUse">
<stop stop-color="white"/>
<stop offset="1" stop-color="white" stop-opacity="0.27"/>
</linearGradient>
<linearGradient id="paint11_linear_2426_4897" x1="1717.8" y1="884" x2="1486.12" y2="884" gradientUnits="userSpaceOnUse">
<stop stop-color="white"/>
<stop offset="1" stop-color="white" stop-opacity="0.27"/>
</linearGradient>
<clipPath id="clip0_2426_4897">
<rect width="2001" height="977" fill="white"/>
</clipPath>
</defs>
</svg>
