<svg width="54" height="54" viewBox="0 0 54 54" fill="none" xmlns="http://www.w3.org/2000/svg">
<rect width="54" height="54" rx="12" fill="white" fill-opacity="0.12"/>
<path d="M21.6665 26.9998L20.6665 26.9998L21.6665 26.9998ZM32.3332 26.9998L33.3332 26.9998L32.3332 26.9998ZM26.9998 32.3332L26.9998 33.3332L26.9998 32.3332ZM26.9998 24.3332L26.9998 25.3332L26.9998 24.3332ZM29.759 40.0473L29.965 41.0259L29.759 40.0473ZM24.2406 40.0473L24.0347 41.0259L24.2406 40.0473ZM14.6513 21.9614L13.7256 21.5833L13.7256 21.5833L14.6513 21.9614ZM13.9523 29.759L12.9738 29.965L12.9738 29.965L13.9523 29.759ZM24.2406 13.9523L24.0347 12.9738L24.2406 13.9523ZM29.759 13.9523L29.965 12.9738L29.759 13.9523ZM39.241 22.0095L38.9507 21.0526L39.241 22.0095ZM14.7571 22.0091L15.0474 21.0521L14.7571 22.0091ZM38.424 22.3429C39.0098 23.7785 39.3332 25.3502 39.3332 26.9998H41.3332C41.3332 25.0866 40.9578 23.2586 40.2757 21.5872L38.424 22.3429ZM39.3332 26.9998C39.3332 27.8762 39.2419 28.7302 39.0688 29.5531L41.0259 29.965C41.2274 29.0074 41.3332 28.0154 41.3332 26.9998H39.3332ZM39.0688 29.5531C38.0668 34.3147 34.3147 38.0668 29.5531 39.0688L29.965 41.0259C35.5024 39.8607 39.8607 35.5024 41.0259 29.965L39.0688 29.5531ZM29.5531 39.0688C28.7302 39.2419 27.8762 39.3332 26.9998 39.3332V41.3332C28.0154 41.3332 29.0074 41.2274 29.965 41.0259L29.5531 39.0688ZM26.9998 39.3332C26.1235 39.3332 25.2695 39.2419 24.4465 39.0688L24.0347 41.0259C24.9923 41.2274 25.9843 41.3332 26.9998 41.3332V39.3332ZM14.6665 26.9998C14.6665 25.3489 14.9904 23.776 15.5771 22.3395L13.7256 21.5833C13.0425 23.2557 12.6665 25.0851 12.6665 26.9998H14.6665ZM24.4465 39.0688C19.6849 38.0668 15.9329 34.3147 14.9309 29.5531L12.9738 29.965C14.139 35.5024 18.4972 39.8607 24.0347 41.0259L24.4465 39.0688ZM14.9309 29.5531C14.7578 28.7302 14.6665 27.8762 14.6665 26.9998H12.6665C12.6665 28.0154 12.7723 29.0074 12.9738 29.965L14.9309 29.5531ZM15.5771 22.3395C17.1042 18.6007 20.4143 15.7794 24.4465 14.9309L24.0347 12.9738C19.343 13.961 15.4997 17.2397 13.7256 21.5833L15.5771 22.3395ZM24.4465 14.9309C25.2695 14.7578 26.1235 14.6665 26.9998 14.6665V12.6665C25.9843 12.6665 24.9923 12.7723 24.0347 12.9738L24.4465 14.9309ZM26.9998 14.6665C27.8762 14.6665 28.7302 14.7578 29.5531 14.9309L29.965 12.9738C29.0074 12.7723 28.0154 12.6665 26.9998 12.6665V14.6665ZM29.5531 14.9309C33.5866 15.7796 36.8975 18.6024 38.424 22.3429L40.2757 21.5872C38.5023 17.2417 34.6581 13.9613 29.965 12.9738L29.5531 14.9309ZM28.8064 14.2563C29.1743 15.4093 30.5361 19.8439 31.0943 23.9183L33.0758 23.6469C32.4928 19.3911 31.0851 14.8186 30.7117 13.6484L28.8064 14.2563ZM31.0943 23.9183C31.2439 25.0102 31.3332 26.0589 31.3332 26.9998L33.3332 26.9998C33.3332 25.9406 33.2333 24.7966 33.0758 23.6469L31.0943 23.9183ZM38.9507 21.0526C37.4874 21.4964 34.739 22.2759 31.9035 22.7992L32.2665 24.766C35.2073 24.2232 38.0363 23.4199 39.5312 22.9665L38.9507 21.0526ZM31.9035 22.7992C30.1835 23.1166 28.466 23.3332 26.9998 23.3332L26.9998 25.3332C28.6388 25.3332 30.4904 25.0938 32.2665 24.766L31.9035 22.7992ZM31.3332 26.9998C31.3332 28.3938 31.1374 30.016 30.8447 31.6531L32.8135 32.0051C33.1164 30.3109 33.3332 28.5596 33.3332 26.9998L31.3332 26.9998ZM30.8447 31.6531C30.2031 35.2413 29.1253 38.7439 28.8064 39.7433L30.7117 40.3513C31.039 39.3256 32.1485 35.724 32.8135 32.0051L30.8447 31.6531ZM39.7433 28.8064C38.7439 29.1253 35.2414 30.2031 31.6531 30.8447L32.0051 32.8135C35.7241 32.1485 39.3256 31.039 40.3513 30.7117L39.7433 28.8064ZM31.6531 30.8447C30.016 31.1374 28.3938 31.3332 26.9998 31.3332L26.9998 33.3332C28.5596 33.3332 30.3109 33.1164 32.0051 32.8135L31.6531 30.8447ZM26.9998 31.3332C25.6059 31.3332 23.9837 31.1374 22.3466 30.8447L21.9946 32.8135C23.6888 33.1164 25.4401 33.3332 26.9998 33.3332L26.9998 31.3332ZM22.3466 30.8447C18.7583 30.2031 15.2558 29.1253 14.2563 28.8064L13.6484 30.7117C14.6741 31.039 18.2756 32.1485 21.9946 32.8135L22.3466 30.8447ZM20.6665 26.9998C20.6665 28.5596 20.8833 30.3109 21.1862 32.0051L23.155 31.6531C22.8623 30.016 22.6665 28.3938 22.6665 26.9998L20.6665 26.9998ZM21.1862 32.0051C21.8511 35.7241 22.9607 39.3256 23.288 40.3513L25.1933 39.7433C24.8744 38.7439 23.7966 35.2413 23.155 31.6531L21.1862 32.0051ZM23.288 13.6484C22.9146 14.8186 21.5069 19.3911 20.9239 23.6469L22.9054 23.9183C23.4636 19.8439 24.8254 15.4093 25.1933 14.2563L23.288 13.6484ZM20.9239 23.6469C20.7664 24.7966 20.6665 25.9406 20.6665 26.9998L22.6665 26.9998C22.6665 26.0589 22.7558 25.0102 22.9054 23.9183L20.9239 23.6469ZM26.9998 23.3332C25.5336 23.3332 23.8162 23.1166 22.0961 22.7992L21.7331 24.766C23.5093 25.0938 25.3609 25.3332 26.9998 25.3332L26.9998 23.3332ZM22.0961 22.7992C19.2597 22.2757 16.5103 21.4959 15.0474 21.0521L14.4669 22.966C15.9614 23.4193 18.7913 24.223 21.7331 24.766L22.0961 22.7992ZM38.889 21.0776C38.9067 21.0684 38.9279 21.0595 38.9507 21.0526L39.5312 22.9665C39.6299 22.9366 39.7227 22.8983 39.8107 22.8526L38.889 21.0776ZM14.1296 22.8145C14.2332 22.8779 14.3457 22.9293 14.4669 22.966L15.0474 21.0521C15.0936 21.0661 15.1362 21.0858 15.173 21.1083L14.1296 22.8145Z" fill="white"/>
</svg>
