<svg width="105" height="32" viewBox="0 0 105 32" fill="none" xmlns="http://www.w3.org/2000/svg">
<path d="M15.4024 1.19133V21.2276H11.1089V19.8815C10.1651 20.9684 8.76103 21.626 6.8425 21.626C3.0944 21.626 0 18.3343 0 14.0679C0 9.80151 3.09054 6.50983 6.8425 6.50983C8.76103 6.50983 10.1612 7.1674 11.1089 8.2543V1.18359H15.4024V1.19133ZM11.1089 14.0718C11.1089 11.925 9.67775 10.579 7.7012 10.579C5.72465 10.579 4.29349 11.925 4.29349 14.0718C4.29349 16.2185 5.72465 17.5646 7.7012 17.5646C9.67388 17.5646 11.1089 16.2185 11.1089 14.0718Z" fill="#FEFEFE"/>
<path d="M33.2339 6.916V21.2276H28.9404V19.8815C27.9966 20.9685 26.5925 21.626 24.674 21.626C20.9259 21.626 17.8315 18.3343 17.8315 14.0679C17.8315 9.80153 20.922 6.50986 24.674 6.50986C26.5925 6.50986 27.9927 7.16742 28.9404 8.25433V6.90826H33.2339V6.916ZM28.9404 14.0718C28.9404 11.9251 27.5092 10.579 25.5327 10.579C23.5561 10.579 22.125 11.9251 22.125 14.0718C22.125 16.2186 23.5561 17.5646 25.5327 17.5646C27.5092 17.5646 28.9404 16.2186 28.9404 14.0718Z" fill="#FEFEFE"/>
<path d="M47.4063 17.2242V21.2315H35.957V18.3692L41.3683 10.9271H36.2432V6.91986H47.12V9.78219L41.7087 17.2242H47.4063Z" fill="#FEFEFE"/>
<path d="M56.3916 17.7928C57.5636 17.7928 58.5693 17.3364 59.1379 16.7059L62.5727 18.6824C61.1686 20.628 59.0528 21.6299 56.3336 21.6299C51.4367 21.6299 48.4042 18.3382 48.4042 14.0718C48.4042 9.80538 51.4947 6.5137 56.0203 6.5137C60.1977 6.5137 63.2921 9.74736 63.2921 14.0718C63.2921 14.6713 63.2341 15.2438 63.1219 15.7892H52.9607C53.5022 17.2784 54.8173 17.7928 56.3916 17.7928ZM59.0257 12.5865C58.5693 10.9271 57.2812 10.3237 55.9932 10.3237C54.3609 10.3237 53.274 11.1244 52.8717 12.5865H59.0257Z" fill="#FEFEFE"/>
<path d="M65.7251 6.91599H70.0186V21.2276H65.7251V6.91599Z" fill="#FEFEFE"/>
<path d="M104.742 12.4434V21.2315H100.448V13.0739C100.448 11.2984 99.3303 10.4707 97.9572 10.4707C96.3829 10.4707 95.296 11.3874 95.296 13.4181V21.2315H91.0025V6.91986H95.296V8.26593C96.0696 7.2061 97.5007 6.52146 99.3883 6.52146C102.282 6.51759 104.742 8.57925 104.742 12.4434Z" fill="#FEFEFE"/>
<path d="M89.6836 27.7065V32H71.3105V27.7065H78.3503V24.0435H82.6438V27.7065H89.6836ZM80.4971 21.9006C84.7557 21.9006 88.175 18.5703 88.175 14.2536C88.175 9.9369 84.7557 6.60654 80.4971 6.60654C76.2384 6.60654 72.8191 9.9369 72.8191 14.2536C72.8191 18.5664 76.2384 21.9006 80.4971 21.9006ZM80.4971 17.669C78.6133 17.669 77.1667 16.3075 77.1667 14.2497C77.1667 12.1919 78.6133 10.8304 80.4971 10.8304C82.3808 10.8304 83.8274 12.1919 83.8274 14.2497C83.8274 16.3075 82.3808 17.669 80.4971 17.669Z" fill="url(#paint0_linear)"/>
<path d="M70.0186 0H65.7251V4.29349H70.0186V0Z" fill="#FEFEFE"/>
<defs>
<linearGradient id="paint0_linear" x1="71.3105" y1="19.3033" x2="89.6836" y2="19.3033" gradientUnits="userSpaceOnUse">
<stop stop-color="#FC466B"/>
<stop offset="1" stop-color="#3F5EFB"/>
</linearGradient>
</defs>
</svg>
